Rokkitt-Regular-Kernagic.ufo
<glyph name="exclam" format="1">
  <advance width="554"></advance>
  <unicode hex="0021"></unicode>
  <outline>
    <contour>
      <point x="188" y="1153" type="line"></point>
      <point x="360" y="1153" type="line"></point>
      <point x="360" y="821" type="line"></point>
      <point x="308" y="324" type="line"></point>
      <point x="240" y="324" type="line"></point>
      <point x="188" y="821" type="line"></point>
    </contour>
    <contour>
      <point x="168" y="212" type="line"></point>
      <point x="380" y="212" type="line"></point>
      <point x="380" y="0" type="line"></point>
      <point x="168" y="0" type="line"></point>
    </contour>
  </outline>
</glyph>
<glyph name="quotedbl" format="1">
  <advance width="739"></advance>
  <unicode hex="0022"></unicode>
  <outline>
    <contour>
      <point x="440" y="1171" type="line"></point>
      <point x="636" y="1171" type="line"></point>
      <point x="594" y="716" type="line"></point>
      <point x="484" y="716" type="line"></point>
    </contour>
    <contour>
      <point x="116" y="1171" type="line"></point>
      <point x="314" y="1171" type="line"></point>
      <point x="272" y="716" type="line"></point>
      <point x="162" y="716" type="line"></point>
    </contour>
  </outline>
</glyph>
<glyph name="numbersign" format="1">
  <advance width="983"></advance>
  <unicode hex="0023"></unicode>
  <outline>
    <contour>
      <point x="726" y="1171" type="line"></point>
      <point x="849" y="1171" type="line"></point>
      <point x="812" y="844" type="line"></point>
      <point x="1009" y="844" type="line"></point>
      <point x="997" y="733" type="line"></point>
      <point x="796" y="733" type="line"></point>
      <point x="767" y="442" type="line"></point>
      <point x="989" y="442" type="line"></point>
      <point x="977" y="333" type="line"></point>
      <point x="751" y="333" type="line"></point>
      <point x="716" y="0" type="line"></point>
      <point x="595" y="0" type="line"></point>
      <point x="626" y="333" type="line"></point>
      <point x="299" y="333" type="line"></point>
      <point x="264" y="0" type="line"></point>
      <point x="143" y="0" type="line"></point>
      <point x="175" y="333" type="line"></point>
      <point x="-1" y="333" type="line"></point>
      <point x="9" y="442" type="line"></point>
      <point x="191" y="442" type="line"></point>
      <point x="224" y="733" type="line"></point>
      <point x="17" y="733" type="line"></point>
      <point x="29" y="844" type="line"></point>
      <point x="240" y="844" type="line"></point>
      <point x="274" y="1171" type="line"></point>
      <point x="397" y="1171" type="line"></point>
      <point x="363" y="844" type="line"></point>
      <point x="688" y="844" type="line"></point>
    </contour>
    <contour>
      <point x="642" y="442" type="line"></point>
      <point x="672" y="733" type="line"></point>
      <point x="346" y="733" type="line"></point>
      <point x="315" y="442" type="line"></point>
    </contour>
  </outline>
</glyph>
<glyph name="dollar" format="1">
  <advance width="1016"></advance>
  <unicode hex="0024"></unicode>
  <outline>
    <contour>
      <point x="450" y="1305" type="line"></point>
      <point x="551" y="1305" type="line"></point>
      <point x="551" y="1161" type="line"></point>
      <point x="614" y="1146"></point>
      <point x="671" y="1118"></point>
      <point x="722" y="1079" type="curve"></point>
      <point x="722" y="1153" type="line"></point>
      <point x="857" y="1153" type="line"></point>
      <point x="857" y="826" type="line"></point>
      <point x="722" y="826" type="line"></point>
      <point x="722" y="908" type="line"></point>
      <point x="674" y="974"></point>
      <point x="617" y="1014"></point>
      <point x="551" y="1027" type="curve"></point>
      <point x="551" y="662" type="line"></point>
      <point x="796" y="610"></point>
      <point x="919" y="491"></point>
      <point x="919" y="306" type="curve" smooth="yes"></point>
      <point x="919" y="110"></point>
      <point x="750" y="-12"></point>
      <point x="551" y="-17" type="curve"></point>
      <point x="551" y="-143" type="line"></point>
      <point x="450" y="-143" type="line"></point>
      <point x="450" y="-4" type="line"></point>
      <point x="373" y="11"></point>
      <point x="303" y="41"></point>
      <point x="240" y="87" type="curve"></point>
      <point x="240" y="0" type="line"></point>
      <point x="105" y="0" type="line"></point>
      <point x="105" y="387" type="line"></point>
      <point x="240" y="387" type="line"></point>
      <point x="240" y="271" type="line"></point>
      <point x="300" y="196"></point>
      <point x="370" y="147"></point>
      <point x="450" y="123" type="curve"></point>
      <point x="450" y="522" type="line"></point>
      <point x="246" y="565"></point>
      <point x="97" y="644"></point>
      <point x="97" y="854" type="curve" smooth="yes"></point>
      <point x="97" y="1050"></point>
      <point x="248" y="1156"></point>
      <point x="450" y="1169" type="curve"></point>
    </contour>
    <contour>
      <point x="755" y="306" type="curve" smooth="yes"></point>
      <point x="755" y="425"></point>
      <point x="664" y="467"></point>
      <point x="551" y="499" type="curve"></point>
      <point x="551" y="117" type="line"></point>
      <point x="664" y="124"></point>
      <point x="755" y="188"></point>
    </contour>
    <contour>
      <point x="450" y="685" type="curve"></point>
      <point x="450" y="1030" type="line"></point>
      <point x="345" y="1016"></point>
      <point x="253" y="966"></point>
      <point x="253" y="878" type="curve" smooth="yes"></point>
      <point x="253" y="754"></point>
      <point x="336" y="716"></point>
    </contour>
  </outline>
</glyph>
<glyph name="percent" format="1">
  <advance width="1425"></advance>
  <unicode hex="0025"></unicode>
  <outline>
    <contour>
      <point x="133" y="0" type="line"></point>
      <point x="1083" y="1196" type="line"></point>
      <point x="1144" y="1146" type="line"></point>
      <point x="201" y="-50" type="line"></point>
    </contour>
    <contour>
      <point x="307" y="863" type="curve" smooth="yes"></point>
      <point x="307" y="982"></point>
      <point x="274" y="1066"></point>
      <point x="181" y="1066" type="curve" smooth="yes"></point>
      <point x="97" y="1066"></point>
      <point x="65" y="966"></point>
      <point x="65" y="863" type="curve" smooth="yes"></point>
      <point x="66" y="749"></point>
      <point x="96" y="660"></point>
      <point x="186" y="660" type="curve" smooth="yes"></point>
      <point x="275" y="660"></point>
      <point x="307" y="757"></point>
    </contour>
    <contour>
      <point x="-72" y="863" type="curve" smooth="yes"></point>
      <point x="-72" y="1041"></point>
      <point x="22" y="1170"></point>
      <point x="186" y="1170" type="curve" smooth="yes"></point>
      <point x="349" y="1170"></point>
      <point x="446" y="1040"></point>
      <point x="446" y="863" type="curve" smooth="yes"></point>
      <point x="446" y="684"></point>
      <point x="351" y="557"></point>
      <point x="186" y="557" type="curve" smooth="yes"></point>
      <point x="25" y="557"></point>
      <point x="-72" y="676"></point>
    </contour>
    <contour>
      <point x="1240" y="287" type="curve" smooth="yes"></point>
      <point x="1240" y="406"></point>
      <point x="1207" y="490"></point>
      <point x="1114" y="490" type="curve" smooth="yes"></point>
      <point x="1030" y="490"></point>
      <point x="998" y="390"></point>
      <point x="998" y="287" type="curve" smooth="yes"></point>
      <point x="998" y="173"></point>
      <point x="1028" y="84"></point>
      <point x="1118" y="84" type="curve" smooth="yes"></point>
      <point x="1206" y="84"></point>
      <point x="1240" y="182"></point>
    </contour>
    <contour>
      <point x="1119" y="-19" type="curve" smooth="yes"></point>
      <point x="958" y="-19"></point>
      <point x="861" y="101"></point>
      <point x="859" y="287" type="curve" smooth="yes"></point>
      <point x="858" y="466"></point>
      <point x="954" y="594"></point>
      <point x="1119" y="594" type="curve" smooth="yes"></point>
      <point x="1283" y="594"></point>
      <point x="1379" y="465"></point>
      <point x="1379" y="287" type="curve" smooth="yes"></point>
      <point x="1380" y="108"></point>
      <point x="1285" y="-19"></point>
    </contour>
  </outline>
</glyph>
<glyph name="ampersand" format="1">
  <advance width="1201"></advance>
  <unicode hex="0026"></unicode>
  <outline>
    <contour>
      <point x="244" y="916" type="curve" smooth="yes"></point>
      <point x="244" y="1067"></point>
      <point x="381" y="1172"></point>
      <point x="533" y="1172" type="curve" smooth="yes"></point>
      <point x="681" y="1172"></point>
      <point x="812" y="1073"></point>
      <point x="812" y="930" type="curve" smooth="yes"></point>
      <point x="812" y="795"></point>
      <point x="730" y="692"></point>
      <point x="565" y="621" type="curve"></point>
      <point x="805" y="332" type="line"></point>
      <point x="856" y="401"></point>
      <point x="891" y="485"></point>
      <point x="912" y="583" type="curve"></point>
      <point x="1142" y="583" type="line"></point>
      <point x="1142" y="456" type="line"></point>
      <point x="1013" y="456" type="line"></point>
      <point x="980" y="355"></point>
      <point x="937" y="278"></point>
      <point x="885" y="223" type="curve"></point>
      <point x="958" y="125" type="line"></point>
      <point x="1142" y="125" type="line"></point>
      <point x="1142" y="0" type="line"></point>
      <point x="882" y="0" type="line"></point>
      <point x="796" y="115" type="line"></point>
      <point x="685" y="26"></point>
      <point x="571" y="-19"></point>
      <point x="455" y="-19" type="curve" smooth="yes"></point>
      <point x="240" y="-19"></point>
      <point x="55" y="117"></point>
      <point x="55" y="325" type="curve" smooth="yes"></point>
      <point x="55" y="481"></point>
      <point x="157" y="596"></point>
      <point x="361" y="670" type="curve"></point>
      <point x="283" y="769"></point>
      <point x="244" y="851"></point>
    </contour>
    <contour>
      <point x="719" y="219" type="curve"></point>
      <point x="437" y="573" type="line"></point>
      <point x="285" y="520"></point>
      <point x="209" y="440"></point>
      <point x="209" y="335" type="curve" smooth="yes"></point>
      <point x="209" y="199"></point>
      <point x="335" y="116"></point>
      <point x="481" y="116" type="curve" smooth="yes"></point>
      <point x="565" y="116"></point>
      <point x="644" y="150"></point>
    </contour>
    <contour>
      <point x="678" y="926" type="curve" smooth="yes"></point>
      <point x="678" y="1008"></point>
      <point x="614" y="1045"></point>
      <point x="531" y="1045" type="curve" smooth="yes"></point>
      <point x="454" y="1045"></point>
      <point x="384" y="1009"></point>
      <point x="384" y="936" type="curve" smooth="yes"></point>
      <point x="384" y="842"></point>
      <point x="440" y="791"></point>
      <point x="493" y="720" type="curve"></point>
      <point x="583" y="767"></point>
      <point x="678" y="818"></point>
    </contour>
  </outline>
</glyph>
<glyph name="quotesingle" format="1">
  <advance width="554"></advance>
  <unicode hex="0027"></unicode>
  <outline>
    <contour>
      <point x="164" y="1171" type="line"></point>
      <point x="361" y="1171" type="line"></point>
      <point x="319" y="716" type="line"></point>
      <point x="209" y="716" type="line"></point>
    </contour>
  </outline>
</glyph>
<glyph name="parenleft" format="1">
  <advance width="688"></advance>
  <unicode hex="0028"></unicode>
  <outline>
    <contour>
      <point x="136" y="518" type="curve" smooth="yes"></point>
      <point x="136" y="858"></point>
      <point x="330" y="1062"></point>
      <point x="578" y="1165" type="curve"></point>
      <point x="578" y="1037" type="line"></point>
      <point x="391" y="925"></point>
      <point x="297" y="752"></point>
      <point x="297" y="517" type="curve" smooth="yes"></point>
      <point x="297" y="280"></point>
      <point x="391" y="108"></point>
      <point x="578" y="-1" type="curve"></point>
      <point x="578" y="-132" type="line"></point>
      <point x="317" y="-25"></point>
      <point x="136" y="175"></point>
    </contour>
  </outline>
</glyph>
<glyph name="parenright" format="1">
  <advance width="646"></advance>
  <unicode hex="0029"></unicode>
  <outline>
    <contour>
      <point x="112" y="1037" type="curve"></point>
      <point x="112" y="1165" type="line"></point>
      <point x="375" y="1056"></point>
      <point x="554" y="859"></point>
      <point x="554" y="518" type="curve" smooth="yes"></point>
      <point x="554" y="179"></point>
      <point x="359" y="-31"></point>
      <point x="112" y="-132" type="curve"></point>
      <point x="112" y="-1" type="line"></point>
      <point x="299" y="108"></point>
      <point x="393" y="280"></point>
      <point x="393" y="517" type="curve" smooth="yes"></point>
      <point x="393" y="752"></point>
      <point x="299" y="925"></point>
    </contour>
  </outline>
</glyph>
<glyph name="asterisk" format="1">
  <advance width="885"></advance>
  <unicode hex="002A"></unicode>
  <outline>
    <contour>
      <point x="364" y="1171" type="line"></point>
      <point x="533" y="1171" type="line"></point>
      <point x="533" y="1013" type="line"></point>
      <point x="473" y="783" type="line"></point>
      <point x="673" y="909" type="line"></point>
      <point x="829" y="960" type="line"></point>
      <point x="879" y="797" type="line"></point>
      <point x="729" y="743" type="line"></point>
      <point x="500" y="729" type="line"></point>
      <point x="673" y="582" type="line"></point>
      <point x="768" y="450" type="line"></point>
      <point x="629" y="351" type="line"></point>
      <point x="533" y="483" type="line"></point>
      <point x="448" y="698" type="line"></point>
      <point x="364" y="483" type="line"></point>
      <point x="267" y="351" type="line"></point>
      <point x="126" y="450" type="line"></point>
      <point x="222" y="582" type="line"></point>
      <point x="396" y="729" type="line"></point>
      <point x="168" y="743" type="line"></point>
      <point x="17" y="797" type="line"></point>
      <point x="67" y="960" type="line"></point>
      <point x="222" y="909" type="line"></point>
      <point x="422" y="783" type="line"></point>
      <point x="364" y="1013" type="line"></point>
    </contour>
  </outline>
</glyph>
<glyph name="plus" format="1">
  <advance width="1109"></advance>
  <unicode hex="002B"></unicode>
  <outline>
    <contour>
      <point x="478" y="994" type="line"></point>
      <point x="602" y="994" type="line"></point>
      <point x="602" y="602" type="line"></point>
      <point x="1007" y="602" type="line"></point>
      <point x="1007" y="485" type="line"></point>
      <point x="602" y="485" type="line"></point>
      <point x="602" y="93" type="line"></point>
      <point x="478" y="93" type="line"></point>
      <point x="478" y="485" type="line"></point>
      <point x="74" y="485" type="line"></point>
      <point x="74" y="602" type="line"></point>
      <point x="478" y="602" type="line"></point>
    </contour>
  </outline>
</glyph>
<glyph name="comma" format="1">
  <advance width="554"></advance>
  <unicode hex="002C"></unicode>
  <outline>
    <contour>
      <point x="178" y="211" type="line"></point>
      <point x="405" y="211" type="line"></point>
      <point x="405" y="0" type="line"></point>
      <point x="406" y="-162"></point>
      <point x="337" y="-237"></point>
      <point x="184" y="-237" type="curve" smooth="yes"></point>
      <point x="178" y="-237" type="line"></point>
      <point x="178" y="-150" type="line"></point>
      <point x="265" y="-132"></point>
      <point x="299" y="-100"></point>
      <point x="299" y="0" type="curve"></point>
      <point x="178" y="0" type="line"></point>
    </contour>
  </outline>
</glyph>
<glyph name="hyphen" format="1">
  <advance width="831"></advance>
  <unicode hex="002D"></unicode>
  <outline>
    <contour>
      <point x="135" y="484" type="line"></point>
      <point x="652" y="484" type="line"></point>
      <point x="652" y="340" type="line"></point>
      <point x="135" y="340" type="line"></point>
    </contour>
  </outline>
</glyph>
<glyph name="period" format="1">
  <advance width="554"></advance>
  <unicode hex="002E"></unicode>
  <outline>
    <contour>
      <point x="178" y="211" type="line"></point>
      <point x="405" y="211" type="line"></point>
      <point x="405" y="0" type="line"></point>
      <point x="178" y="0" type="line"></point>
    </contour>
  </outline>
</glyph>
<glyph name="slash" format="1">
  <advance width="739"></advance>
  <unicode hex="002F"></unicode>
  <outline>
    <contour>
      <point x="527" y="1171" type="line"></point>
      <point x="656" y="1171" type="line"></point>
      <point x="222" y="-18" type="line"></point>
      <point x="93" y="-18" type="line"></point>
    </contour>
  </outline>
</glyph>
<glyph name="zero" format="1">
  <advance width="1081"></advance>
  <unicode hex="0030"></unicode>
  <outline>
    <contour>
      <point x="112" y="577" type="curve" smooth="yes"></point>
      <point x="112" y="923"></point>
      <point x="220" y="1171"></point>
      <point x="527" y="1171" type="curve" smooth="yes"></point>
      <point x="832" y="1171"></point>
      <point x="942" y="902"></point>
      <point x="942" y="577" type="curve" smooth="yes"></point>
      <point x="941" y="230"></point>
      <point x="833" y="-18"></point>
      <point x="527" y="-18" type="curve" smooth="yes"></point>
      <point x="222" y="-18"></point>
      <point x="112" y="252"></point>
    </contour>
    <contour>
      <point x="789" y="575" type="curve" smooth="yes"></point>
      <point x="789" y="835"></point>
      <point x="748" y="1051"></point>
      <point x="526" y="1051" type="curve" smooth="yes"></point>
      <point x="323" y="1051"></point>
      <point x="266" y="832"></point>
      <point x="266" y="576" type="curve" smooth="yes"></point>
      <point x="266" y="290"></point>
      <point x="313" y="105"></point>
      <point x="523" y="101" type="curve"></point>
      <point x="750" y="101"></point>
      <point x="789" y="312"></point>
    </contour>
  </outline>
</glyph>
<glyph name="one" format="1">
  <advance width="739"></advance>
  <unicode hex="0031"></unicode>
  <outline>
    <contour>
      <point x="135" y="1153" type="line"></point>
      <point x="458" y="1153" type="line"></point>
      <point x="458" y="116" type="line"></point>
      <point x="612" y="116" type="line"></point>
      <point x="612" y="0" type="line"></point>
      <point x="143" y="0" type="line"></point>
      <point x="143" y="116" type="line"></point>
      <point x="309" y="116" type="line"></point>
      <point x="309" y="1037" type="line"></point>
      <point x="135" y="1037" type="line"></point>
    </contour>
  </outline>
</glyph>
<glyph name="two" format="1">
  <advance width="983"></advance>
  <unicode hex="0032"></unicode>
  <outline>
    <contour>
      <point x="121" y="744" type="line"></point>
      <point x="121" y="1019"></point>
      <point x="222" y="1171"></point>
      <point x="488" y="1171" type="curve" smooth="yes"></point>
      <point x="696" y="1171"></point>
      <point x="858" y="1060"></point>
      <point x="858" y="858" type="curve" smooth="yes"></point>
      <point x="858" y="504"></point>
      <point x="315" y="423"></point>
      <point x="254" y="116" type="curve"></point>
      <point x="726" y="116" type="line"></point>
      <point x="726" y="378" type="line"></point>
      <point x="853" y="378" type="line"></point>
      <point x="853" y="0" type="line"></point>
      <point x="88" y="0" type="line"></point>
      <point x="88" y="172"></point>
      <point x="159" y="319"></point>
      <point x="300" y="442" type="curve" smooth="yes"></point>
      <point x="427" y="552"></point>
      <point x="692" y="676"></point>
      <point x="692" y="860" type="curve" smooth="yes"></point>
      <point x="692" y="982"></point>
      <point x="607" y="1038"></point>
      <point x="473" y="1038" type="curve" smooth="yes"></point>
      <point x="307" y="1038"></point>
      <point x="265" y="930"></point>
      <point x="265" y="750" type="curve" smooth="yes"></point>
      <point x="265" y="744" type="line"></point>
    </contour>
  </outline>
</glyph>
<glyph name="three" format="1">
  <advance width="983"></advance>
  <unicode hex="0033"></unicode>
  <outline>
    <contour>
      <point x="121" y="853" type="line"></point>
      <point x="129" y="1055"></point>
      <point x="263" y="1170"></point>
      <point x="493" y="1170" type="curve" smooth="yes"></point>
      <point x="706" y="1170"></point>
      <point x="865" y="1069"></point>
      <point x="865" y="864" type="curve" smooth="yes"></point>
      <point x="865" y="727"></point>
      <point x="800" y="639"></point>
      <point x="670" y="602" type="curve"></point>
      <point x="814" y="575"></point>
      <point x="914" y="483"></point>
      <point x="914" y="322" type="curve" smooth="yes"></point>
      <point x="914" y="98"></point>
      <point x="715" y="-18"></point>
      <point x="492" y="-18" type="curve" smooth="yes"></point>
      <point x="489" y="-18" type="line" smooth="yes"></point>
      <point x="245" y="-18"></point>
      <point x="93" y="104"></point>
      <point x="93" y="346" type="curve"></point>
      <point x="240" y="346" type="line"></point>
      <point x="253" y="203"></point>
      <point x="333" y="116"></point>
      <point x="485" y="116" type="curve" smooth="yes"></point>
      <point x="645" y="116"></point>
      <point x="750" y="177"></point>
      <point x="750" y="328" type="curve" smooth="yes"></point>
      <point x="750" y="464"></point>
      <point x="628" y="532"></point>
      <point x="384" y="532" type="curve"></point>
      <point x="384" y="664" type="line"></point>
      <point x="590" y="664"></point>
      <point x="711" y="682"></point>
      <point x="711" y="850" type="curve" smooth="yes"></point>
      <point x="711" y="975"></point>
      <point x="615" y="1038"></point>
      <point x="485" y="1038" type="curve" smooth="yes"></point>
      <point x="349" y="1038"></point>
      <point x="278" y="973"></point>
      <point x="269" y="852" type="curve"></point>
    </contour>
  </outline>
</glyph>
<glyph name="four" format="1">
  <advance width="924"></advance>
  <unicode hex="0034"></unicode>
  <outline>
    <contour>
      <point x="532" y="1153" type="line"></point>
      <point x="670" y="1153" type="line"></point>
      <point x="670" y="436" type="line"></point>
      <point x="860" y="436" type="line"></point>
      <point x="860" y="315" type="line"></point>
      <point x="670" y="315" type="line"></point>
      <point x="670" y="116" type="line"></point>
      <point x="819" y="116" type="line"></point>
      <point x="819" y="0" type="line"></point>
      <point x="364" y="0" type="line"></point>
      <point x="364" y="116" type="line"></point>
      <point x="528" y="116" type="line"></point>
      <point x="528" y="315" type="line"></point>
      <point x="69" y="315" type="line"></point>
      <point x="69" y="436" type="line"></point>
    </contour>
    <contour>
      <point x="528" y="436" type="line"></point>
      <point x="528" y="947" type="line"></point>
      <point x="213" y="436" type="line"></point>
    </contour>
  </outline>
</glyph>
<glyph name="five" format="1">
  <advance width="924"></advance>
  <unicode hex="0035"></unicode>
  <outline>
    <contour>
      <point x="146" y="1153" type="line"></point>
      <point x="791" y="1153" type="line"></point>
      <point x="791" y="916" type="line"></point>
      <point x="653" y="916" type="line"></point>
      <point x="653" y="1037" type="line"></point>
      <point x="274" y="1037" type="line"></point>
      <point x="263" y="913"></point>
      <point x="254" y="776"></point>
      <point x="245" y="651" type="curve"></point>
      <point x="299" y="726"></point>
      <point x="381" y="764"></point>
      <point x="493" y="764" type="curve" smooth="yes"></point>
      <point x="716" y="764"></point>
      <point x="864" y="595"></point>
      <point x="864" y="370" type="curve" smooth="yes"></point>
      <point x="864" y="134"></point>
      <point x="715" y="-18"></point>
      <point x="475" y="-18" type="curve" smooth="yes"></point>
      <point x="234" y="-18"></point>
      <point x="99" y="106"></point>
      <point x="83" y="329" type="curve"></point>
      <point x="226" y="330" type="line"></point>
      <point x="247" y="213"></point>
      <point x="318" y="109"></point>
      <point x="443" y="109" type="curve" smooth="yes"></point>
      <point x="616" y="109"></point>
      <point x="705" y="200"></point>
      <point x="705" y="366" type="curve" smooth="yes"></point>
      <point x="705" y="515"></point>
      <point x="618" y="625"></point>
      <point x="476" y="625" type="curve" smooth="yes"></point>
      <point x="387" y="625"></point>
      <point x="304" y="587"></point>
      <point x="229" y="512" type="curve"></point>
      <point x="146" y="557" type="line"></point>
    </contour>
  </outline>
</glyph>
<glyph name="six" format="1">
  <advance width="1016"></advance>
  <unicode hex="0036"></unicode>
  <outline>
    <contour>
      <point x="506" y="1171" type="curve" smooth="yes"></point>
      <point x="508" y="1171" type="line" smooth="yes"></point>
      <point x="710" y="1171"></point>
      <point x="853" y="1043"></point>
      <point x="858" y="848" type="curve"></point>
      <point x="721" y="848" type="line"></point>
      <point x="709" y="949"></point>
      <point x="632" y="1045"></point>
      <point x="526" y="1045" type="curve" smooth="yes"></point>
      <point x="321" y="1045"></point>
      <point x="247" y="862"></point>
      <point x="247" y="639" type="curve"></point>
      <point x="315" y="695"></point>
      <point x="406" y="722"></point>
      <point x="519" y="722" type="curve" smooth="yes"></point>
      <point x="740" y="721"></point>
      <point x="878" y="580"></point>
      <point x="878" y="362" type="curve" smooth="yes"></point>
      <point x="878" y="144"></point>
      <point x="731" y="-18"></point>
      <point x="509" y="-18" type="curve" smooth="yes"></point>
      <point x="222" y="-18"></point>
      <point x="97" y="232"></point>
      <point x="97" y="575" type="curve" smooth="yes"></point>
      <point x="97" y="899"></point>
      <point x="204" y="1171"></point>
    </contour>
    <contour>
      <point x="733" y="362" type="curve" smooth="yes"></point>
      <point x="733" y="490"></point>
      <point x="663" y="592"></point>
      <point x="530" y="592" type="curve" smooth="yes"></point>
      <point x="427" y="592"></point>
      <point x="313" y="555"></point>
      <point x="253" y="509" type="curve"></point>
      <point x="267" y="308"></point>
      <point x="312" y="116"></point>
      <point x="498" y="116" type="curve" smooth="yes"></point>
      <point x="648" y="116"></point>
      <point x="733" y="214"></point>
    </contour>
  </outline>
</glyph>
<glyph name="seven" format="1">
  <advance width="831"></advance>
  <unicode hex="0037"></unicode>
  <outline>
    <contour>
      <point x="64" y="1153" type="line"></point>
      <point x="822" y="1153" type="line"></point>
      <point x="822" y="1025" type="line"></point>
      <point x="598" y="798"></point>
      <point x="463" y="516"></point>
      <point x="463" y="116" type="curve"></point>
      <point x="645" y="116" type="line"></point>
      <point x="645" y="0" type="line"></point>
      <point x="134" y="0" type="line"></point>
      <point x="134" y="116" type="line"></point>
      <point x="306" y="116" type="line"></point>
      <point x="306" y="471"></point>
      <point x="452" y="818"></point>
      <point x="654" y="1036" type="curve"></point>
      <point x="201" y="1036" type="line"></point>
      <point x="201" y="860" type="line"></point>
      <point x="64" y="860" type="line"></point>
    </contour>
  </outline>
</glyph>
<glyph name="eight" format="1">
  <advance width="1032"></advance>
  <unicode hex="0038"></unicode>
  <outline>
    <contour>
      <point x="112" y="867" type="curve" smooth="yes"></point>
      <point x="112" y="1067"></point>
      <point x="291" y="1170"></point>
      <point x="502" y="1171" type="curve"></point>
      <point x="713" y="1170"></point>
      <point x="892" y="1067"></point>
      <point x="892" y="867" type="curve" smooth="yes"></point>
      <point x="892" y="710"></point>
      <point x="811" y="642"></point>
      <point x="698" y="599" type="curve"></point>
      <point x="825" y="566"></point>
      <point x="925" y="472"></point>
      <point x="925" y="328" type="curve" smooth="yes"></point>
      <point x="925" y="99"></point>
      <point x="739" y="-18"></point>
      <point x="502" y="-18" type="curve" smooth="yes"></point>
      <point x="272" y="-18"></point>
      <point x="79" y="96"></point>
      <point x="79" y="315" type="curve" smooth="yes"></point>
      <point x="79" y="472"></point>
      <point x="171" y="564"></point>
      <point x="306" y="599" type="curve"></point>
      <point x="177" y="648"></point>
      <point x="112" y="737"></point>
    </contour>
    <contour>
      <point x="760" y="326" type="curve" smooth="yes"></point>
      <point x="760" y="468"></point>
      <point x="655" y="533"></point>
      <point x="502" y="533" type="curve" smooth="yes"></point>
      <point x="349" y="533"></point>
      <point x="244" y="468"></point>
      <point x="244" y="326" type="curve" smooth="yes"></point>
      <point x="244" y="191"></point>
      <point x="361" y="116"></point>
      <point x="502" y="116" type="curve" smooth="yes"></point>
      <point x="643" y="116"></point>
      <point x="760" y="191"></point>
    </contour>
    <contour>
      <point x="738" y="854" type="curve" smooth="yes"></point>
      <point x="738" y="979"></point>
      <point x="635" y="1037"></point>
      <point x="502" y="1037" type="curve" smooth="yes"></point>
      <point x="371" y="1037"></point>
      <point x="267" y="981"></point>
      <point x="267" y="858" type="curve" smooth="yes"></point>
      <point x="267" y="734"></point>
      <point x="379" y="667"></point>
      <point x="502" y="659" type="curve"></point>
      <point x="627" y="666"></point>
      <point x="738" y="726"></point>
    </contour>
  </outline>
</glyph>
<glyph name="nine" format="1">
  <advance width="1016"></advance>
  <unicode hex="0039"></unicode>
  <outline>
    <contour>
      <point x="88" y="791" type="curve" smooth="yes"></point>
      <point x="88" y="1011"></point>
      <point x="233" y="1171"></point>
      <point x="457" y="1171" type="curve" smooth="yes"></point>
      <point x="764" y="1171"></point>
      <point x="870" y="913"></point>
      <point x="870" y="582" type="curve" smooth="yes"></point>
      <point x="870" y="241"></point>
      <point x="730" y="-18"></point>
      <point x="465" y="-18" type="curve" smooth="yes"></point>
      <point x="256" y="-18"></point>
      <point x="114" y="104"></point>
      <point x="108" y="305" type="curve"></point>
      <point x="245" y="305" type="line"></point>
      <point x="261" y="197"></point>
      <point x="322" y="106"></point>
      <point x="452" y="106" type="curve" smooth="yes"></point>
      <point x="630" y="106"></point>
      <point x="719" y="248"></point>
      <point x="719" y="534" type="curve"></point>
      <point x="650" y="465"></point>
      <point x="559" y="430"></point>
      <point x="446" y="430" type="curve" smooth="yes"></point>
      <point x="225" y="430"></point>
      <point x="88" y="572"></point>
    </contour>
    <contour>
      <point x="713" y="694" type="curve"></point>
      <point x="692" y="905"></point>
      <point x="640" y="1036"></point>
      <point x="465" y="1036" type="curve" smooth="yes"></point>
      <point x="317" y="1036"></point>
      <point x="233" y="937"></point>
      <point x="233" y="791" type="curve" smooth="yes"></point>
      <point x="233" y="666"></point>
      <point x="306" y="572"></point>
      <point x="442" y="572" type="curve" smooth="yes"></point>
      <point x="550" y="572"></point>
      <point x="663" y="637"></point>
    </contour>
  </outline>
</glyph>
<glyph name="colon" format="1">
  <advance width="554"></advance>
  <unicode hex="003A"></unicode>
  <outline>
    <contour>
      <point x="178" y="820" type="line"></point>
      <point x="405" y="820" type="line"></point>
      <point x="405" y="609" type="line"></point>
      <point x="178" y="609" type="line"></point>
    </contour>
    <contour>
      <point x="178" y="211" type="line"></point>
      <point x="405" y="211" type="line"></point>
      <point x="405" y="0" type="line"></point>
      <point x="178" y="0" type="line"></point>
    </contour>
  </outline>
</glyph>
<glyph name="semicolon" format="1">
  <advance width="590"></advance>
  <unicode hex="003B"></unicode>
  <outline>
    <contour>
      <point x="190" y="211" type="line"></point>
      <point x="417" y="211" type="line"></point>
      <point x="417" y="0" type="line"></point>
      <point x="418" y="-164"></point>
      <point x="347" y="-239"></point>
      <point x="190" y="-237" type="curve"></point>
      <point x="190" y="-150" type="line"></point>
      <point x="277" y="-132"></point>
      <point x="311" y="-100"></point>
      <point x="311" y="0" type="curve"></point>
      <point x="190" y="0" type="line"></point>
    </contour>
    <contour>
      <point x="183" y="820" type="line"></point>
      <point x="410" y="820" type="line"></point>
      <point x="410" y="609" type="line"></point>
      <point x="183" y="609" type="line"></point>
    </contour>
  </outline>
</glyph>
<glyph name="less" format="1">
  <advance width="1032"></advance>
  <unicode hex="003C"></unicode>
  <outline>
    <contour>
      <point x="65" y="768" type="line"></point>
      <point x="944" y="1241" type="line"></point>
      <point x="944" y="1104" type="line"></point>
      <point x="256" y="731" type="line"></point>
      <point x="944" y="362" type="line"></point>
      <point x="944" y="225" type="line"></point>
      <point x="65" y="696" type="line"></point>
    </contour>
  </outline>
</glyph>
<glyph name="equal" format="1">
  <advance width="1016"></advance>
  <unicode hex="003D"></unicode>
  <outline>
    <contour>
      <point x="83" y="993" type="line"></point>
      <point x="962" y="993" type="line"></point>
      <point x="962" y="872" type="line"></point>
      <point x="83" y="872" type="line"></point>
    </contour>
    <contour>
      <point x="83" y="590" type="line"></point>
      <point x="962" y="590" type="line"></point>
      <point x="962" y="469" type="line"></point>
      <point x="83" y="469" type="line"></point>
    </contour>
  </outline>
</glyph>
<glyph name="greater" format="1">
  <advance width="1016"></advance>
  <unicode hex="003E"></unicode>
  <outline>
    <contour>
      <point x="83" y="1104" type="line"></point>
      <point x="83" y="1241" type="line"></point>
      <point x="962" y="768" type="line"></point>
      <point x="962" y="696" type="line"></point>
      <point x="83" y="225" type="line"></point>
      <point x="83" y="362" type="line"></point>
      <point x="771" y="731" type="line"></point>
    </contour>
  </outline>
</glyph>
<glyph name="question" format="1">
  <advance width="1016"></advance>
  <unicode hex="003F"></unicode>
  <outline>
    <contour>
      <point x="216" y="849" type="line"></point>
      <point x="216" y="1059"></point>
      <point x="354" y="1170"></point>
      <point x="554" y="1170" type="curve" smooth="yes"></point>
      <point x="741" y="1170"></point>
      <point x="900" y="1054"></point>
      <point x="900" y="868" type="curve" smooth="yes"></point>
      <point x="900" y="742"></point>
      <point x="830" y="680"></point>
      <point x="744" y="624" type="curve" smooth="yes"></point>
      <point x="633" y="551"></point>
      <point x="580" y="485"></point>
      <point x="570" y="323" type="curve"></point>
      <point x="475" y="323" type="line"></point>
      <point x="475" y="491"></point>
      <point x="518" y="606"></point>
      <point x="603" y="669" type="curve"></point>
      <point x="674" y="720"></point>
      <point x="758" y="753"></point>
      <point x="758" y="862" type="curve" smooth="yes"></point>
      <point x="758" y="975"></point>
      <point x="674" y="1050"></point>
      <point x="563" y="1050" type="curve" smooth="yes"></point>
      <point x="422" y="1050"></point>
      <point x="351" y="983"></point>
      <point x="351" y="849" type="curve"></point>
    </contour>
    <contour>
      <point x="442" y="197" type="line"></point>
      <point x="614" y="197" type="line"></point>
      <point x="614" y="0" type="line"></point>
      <point x="442" y="0" type="line"></point>
    </contour>
  </outline>
</glyph>
<glyph name="at" format="1">
  <advance width="1425"></advance>
  <unicode hex="0040"></unicode>
  <outline>
    <contour>
      <point x="74" y="494" type="curve" smooth="yes"></point>
      <point x="74" y="864"></point>
      <point x="369" y="1172"></point>
      <point x="752" y="1172" type="curve" smooth="yes"></point>
      <point x="1100" y="1172"></point>
      <point x="1355" y="976"></point>
      <point x="1355" y="644" type="curve" smooth="yes"></point>
      <point x="1355" y="384"></point>
      <point x="1202" y="141"></point>
      <point x="948" y="141" type="curve" smooth="yes"></point>
      <point x="881" y="141"></point>
      <point x="853" y="193"></point>
      <point x="846" y="263" type="curve"></point>
      <point x="791" y="182"></point>
      <point x="722" y="141"></point>
      <point x="640" y="141" type="curve" smooth="yes"></point>
      <point x="459" y="141"></point>
      <point x="357" y="279"></point>
      <point x="357" y="471" type="curve" smooth="yes"></point>
      <point x="357" y="691"></point>
      <point x="503" y="897"></point>
      <point x="728" y="897" type="curve" smooth="yes"></point>
      <point x="826" y="897"></point>
      <point x="899" y="847"></point>
      <point x="928" y="766" type="curve"></point>
      <point x="950" y="879" type="line"></point>
      <point x="1086" y="879" type="line"></point>
      <point x="976" y="369" type="line" smooth="yes"></point>
      <point x="970" y="341"></point>
      <point x="961" y="312"></point>
      <point x="961" y="290" type="curve" smooth="yes"></point>
      <point x="961" y="271"></point>
      <point x="968" y="258"></point>
      <point x="990" y="258" type="curve" smooth="yes"></point>
      <point x="1124" y="258"></point>
      <point x="1230" y="475"></point>
      <point x="1230" y="637" type="curve" smooth="yes"></point>
      <point x="1230" y="893"></point>
      <point x="1024" y="1058"></point>
      <point x="750" y="1058" type="curve" smooth="yes"></point>
      <point x="436" y="1058"></point>
      <point x="208" y="807"></point>
      <point x="208" y="490" type="curve" smooth="yes"></point>
      <point x="208" y="164"></point>
      <point x="427" y="-33"></point>
      <point x="754" y="-33" type="curve" smooth="yes"></point>
      <point x="920" y="-33"></point>
      <point x="1054" y="5"></point>
      <point x="1153" y="81" type="curve"></point>
      <point x="1222" y="-3" type="line"></point>
      <point x="1101" y="-96"></point>
      <point x="952" y="-143"></point>
      <point x="775" y="-143" type="curve" smooth="yes"></point>
      <point x="360" y="-143"></point>
      <point x="74" y="104"></point>
    </contour>
    <contour>
      <point x="886" y="612" type="curve" smooth="yes"></point>
      <point x="886" y="704"></point>
      <point x="818" y="784"></point>
      <point x="727" y="784" type="curve" smooth="yes"></point>
      <point x="568" y="784"></point>
      <point x="493" y="613"></point>
      <point x="493" y="450" type="curve" smooth="yes"></point>
      <point x="493" y="338"></point>
      <point x="546" y="250"></point>
      <point x="661" y="250" type="curve" smooth="yes"></point>
      <point x="811" y="250"></point>
      <point x="886" y="455"></point>
    </contour>
  </outline>
</glyph>
<glyph name="A" format="1">
  <advance width="1130"></advance>
  <unicode hex="0041"></unicode>
  <outline>
    <contour>
      <point x="290" y="1153" type="line"></point>
      <point x="820" y="1153" type="line"></point>
      <point x="820" y="1037" type="line"></point>
      <point x="709" y="1037" type="line"></point>
      <point x="1031" y="116" type="line"></point>
      <point x="1174" y="116" type="line"></point>
      <point x="1174" y="0" type="line"></point>
      <point x="717" y="0" type="line"></point>
      <point x="717" y="116" type="line"></point>
      <point x="865" y="116" type="line"></point>
      <point x="766" y="424" type="line"></point>
      <point x="352" y="424" type="line"></point>
      <point x="256" y="116" type="line"></point>
      <point x="402" y="116" type="line"></point>
      <point x="402" y="0" type="line"></point>
      <point x="-53" y="0" type="line"></point>
      <point x="-53" y="116" type="line"></point>
      <point x="90" y="116" type="line"></point>
      <point x="410" y="1037" type="line"></point>
      <point x="290" y="1037" type="line"></point>
    </contour>
    <contour>
      <point x="736" y="545" type="line"></point>
      <point x="567" y="1037" type="line"></point>
      <point x="553" y="1037" type="line"></point>
      <point x="382" y="545" type="line"></point>
    </contour>
  </outline>
</glyph>
<glyph name="B" format="1">
  <advance width="1016"></advance>
  <unicode hex="0042"></unicode>
  <outline>
    <contour>
      <point x="12" y="1153" type="line"></point>
      <point x="498" y="1153" type="line"></point>
      <point x="721" y="1151"></point>
      <point x="874" y="1058"></point>
      <point x="874" y="854" type="curve" smooth="yes"></point>
      <point x="874" y="740"></point>
      <point x="807" y="649"></point>
      <point x="713" y="607" type="curve"></point>
      <point x="835" y="566"></point>
      <point x="928" y="478"></point>
      <point x="928" y="323" type="curve" smooth="yes"></point>
      <point x="928" y="94"></point>
      <point x="736" y="0"></point>
      <point x="487" y="0" type="curve" smooth="yes"></point>
      <point x="12" y="0" type="line"></point>
      <point x="12" y="116" type="line"></point>
      <point x="160" y="116" type="line"></point>
      <point x="160" y="1037" type="line"></point>
      <point x="12" y="1037" type="line"></point>
    </contour>
    <contour>
      <point x="761" y="332" type="curve" smooth="yes"></point>
      <point x="761" y="466"></point>
      <point x="650" y="532"></point>
      <point x="492" y="532" type="curve" smooth="yes"></point>
      <point x="320" y="532" type="line"></point>
      <point x="320" y="116" type="line"></point>
      <point x="486" y="116" type="line" smooth="yes"></point>
      <point x="669" y="116"></point>
      <point x="761" y="188"></point>
    </contour>
    <contour>
      <point x="708" y="851" type="curve" smooth="yes"></point>
      <point x="708" y="975"></point>
      <point x="625" y="1037"></point>
      <point x="459" y="1037" type="curve" smooth="yes"></point>
      <point x="320" y="1037" type="line"></point>
      <point x="320" y="661" type="line"></point>
      <point x="483" y="661" type="line"></point>
      <point x="626" y="662"></point>
      <point x="708" y="719"></point>
    </contour>
  </outline>
</glyph>
<glyph name="C" format="1">
  <advance width="1201"></advance>
  <unicode hex="0043"></unicode>
  <outline>
    <contour>
      <point x="74" y="575" type="curve"></point>
      <point x="74" y="939"></point>
      <point x="325" y="1171"></point>
      <point x="674" y="1171" type="curve" smooth="yes"></point>
      <point x="817" y="1171"></point>
      <point x="937" y="1121"></point>
      <point x="1032" y="1022" type="curve"></point>
      <point x="1032" y="1153" type="line"></point>
      <point x="1162" y="1153" type="line"></point>
      <point x="1162" y="807" type="line"></point>
      <point x="1037" y="807" type="line"></point>
      <point x="961" y="960"></point>
      <point x="836" y="1037"></point>
      <point x="656" y="1037" type="curve" smooth="yes"></point>
      <point x="429" y="1037"></point>
      <point x="251" y="837"></point>
      <point x="251" y="580" type="curve" smooth="yes"></point>
      <point x="251" y="313"></point>
      <point x="424" y="116"></point>
      <point x="655" y="116" type="curve" smooth="yes"></point>
      <point x="867" y="116"></point>
      <point x="1001" y="203"></point>
      <point x="1058" y="378" type="curve"></point>
      <point x="1193" y="307" type="line"></point>
      <point x="1113" y="113"></point>
      <point x="929" y="-18"></point>
      <point x="666" y="-18" type="curve" smooth="yes"></point>
      <point x="322" y="-18"></point>
      <point x="76" y="214"></point>
    </contour>
  </outline>
</glyph>
<glyph name="D" format="1">
  <advance width="1201"></advance>
  <unicode hex="0044"></unicode>
  <outline>
    <contour>
      <point x="-15" y="1153" type="line"></point>
      <point x="538" y="1153" type="line" smooth="yes"></point>
      <point x="901" y="1153"></point>
      <point x="1124" y="963"></point>
      <point x="1124" y="596" type="curve" smooth="yes"></point>
      <point x="1124" y="199"></point>
      <point x="924" y="0"></point>
      <point x="524" y="0" type="curve" smooth="yes"></point>
      <point x="-15" y="0" type="line"></point>
      <point x="-15" y="116" type="line"></point>
      <point x="143" y="116" type="line"></point>
      <point x="143" y="1037" type="line"></point>
      <point x="-15" y="1037" type="line"></point>
    </contour>
    <contour>
      <point x="959" y="581" type="curve" smooth="yes"></point>
      <point x="959" y="865"></point>
      <point x="822" y="1037"></point>
      <point x="534" y="1037" type="curve" smooth="yes"></point>
      <point x="305" y="1037" type="line"></point>
      <point x="305" y="116" type="line"></point>
      <point x="550" y="116" type="line" smooth="yes"></point>
      <point x="825" y="116"></point>
      <point x="959" y="308"></point>
    </contour>
  </outline>
</glyph>
<glyph name="E" format="1">
  <advance width="1016"></advance>
  <unicode hex="0045"></unicode>
  <outline>
    <contour>
      <point x="-1" y="1153" type="line"></point>
      <point x="969" y="1153" type="line"></point>
      <point x="969" y="818" type="line"></point>
      <point x="838" y="818" type="line"></point>
      <point x="838" y="1037" type="line"></point>
      <point x="313" y="1037" type="line"></point>
      <point x="313" y="655" type="line"></point>
      <point x="675" y="655" type="line"></point>
      <point x="675" y="769" type="line"></point>
      <point x="775" y="769" type="line"></point>
      <point x="775" y="410" type="line"></point>
      <point x="674" y="410" type="line"></point>
      <point x="674" y="526" type="line"></point>
      <point x="315" y="526" type="line"></point>
      <point x="315" y="116" type="line"></point>
      <point x="840" y="116" type="line"></point>
      <point x="840" y="328" type="line"></point>
      <point x="969" y="328" type="line"></point>
      <point x="969" y="0" type="line"></point>
      <point x="-1" y="0" type="line"></point>
      <point x="-1" y="116" type="line"></point>
      <point x="154" y="116" type="line"></point>
      <point x="154" y="1037" type="line"></point>
      <point x="-1" y="1037" type="line"></point>
    </contour>
  </outline>
</glyph>
<glyph name="F" format="1">
  <advance width="934"></advance>
  <unicode hex="0046"></unicode>
  <outline>
    <contour>
      <point x="12" y="1153" type="line"></point>
      <point x="929" y="1153" type="line"></point>
      <point x="929" y="818" type="line"></point>
      <point x="797" y="818" type="line"></point>
      <point x="797" y="1037" type="line"></point>
      <point x="324" y="1037" type="line"></point>
      <point x="324" y="657" type="line"></point>
      <point x="638" y="657" type="line"></point>
      <point x="638" y="771" type="line"></point>
      <point x="738" y="771" type="line"></point>
      <point x="738" y="412" type="line"></point>
      <point x="637" y="412" type="line"></point>
      <point x="637" y="528" type="line"></point>
      <point x="325" y="528" type="line"></point>
      <point x="325" y="116" type="line"></point>
      <point x="481" y="116" type="line"></point>
      <point x="481" y="0" type="line"></point>
      <point x="12" y="0" type="line"></point>
      <point x="12" y="116" type="line"></point>
      <point x="164" y="116" type="line"></point>
      <point x="164" y="1037" type="line"></point>
      <point x="12" y="1037" type="line"></point>
    </contour>
  </outline>
</glyph>
<glyph name="G" format="1">
  <advance width="1278"></advance>
  <unicode hex="0047"></unicode>
  <outline>
    <contour>
      <point x="79" y="575" type="curve" smooth="yes"></point>
      <point x="79" y="925"></point>
      <point x="323" y="1171"></point>
      <point x="666" y="1171" type="curve" smooth="yes"></point>
      <point x="825" y="1171"></point>
      <point x="954" y="1121"></point>
      <point x="1053" y="1022" type="curve"></point>
      <point x="1053" y="1153" type="line"></point>
      <point x="1183" y="1153" type="line"></point>
      <point x="1183" y="806" type="line"></point>
      <point x="1059" y="806" type="line"></point>
      <point x="980" y="960"></point>
      <point x="852" y="1037"></point>
      <point x="675" y="1037" type="curve" smooth="yes"></point>
      <point x="432" y="1037"></point>
      <point x="256" y="843"></point>
      <point x="256" y="576" type="curve" smooth="yes"></point>
      <point x="256" y="304"></point>
      <point x="433" y="116"></point>
      <point x="686" y="116" type="curve" smooth="yes"></point>
      <point x="932" y="116"></point>
      <point x="1065" y="235"></point>
      <point x="1072" y="436" type="curve"></point>
      <point x="845" y="436" type="line"></point>
      <point x="845" y="563" type="line"></point>
      <point x="1236" y="563" type="line"></point>
      <point x="1236" y="179"></point>
      <point x="1050" y="-18"></point>
      <point x="687" y="-18" type="curve" smooth="yes"></point>
      <point x="343" y="-18"></point>
      <point x="79" y="201"></point>
    </contour>
  </outline>
</glyph>
<glyph name="H" format="1">
  <advance width="1109"></advance>
  <unicode hex="0048"></unicode>
  <outline>
    <contour>
      <point x="706" y="1153" type="line"></point>
      <point x="1148" y="1153" type="line"></point>
      <point x="1148" y="1037" type="line"></point>
      <point x="1009" y="1037" type="line"></point>
      <point x="1009" y="116" type="line"></point>
      <point x="1148" y="116" type="line"></point>
      <point x="1148" y="0" type="line"></point>
      <point x="706" y="0" type="line"></point>
      <point x="706" y="116" type="line"></point>
      <point x="849" y="116" type="line"></point>
      <point x="849" y="538" type="line"></point>
      <point x="298" y="538" type="line"></point>
      <point x="298" y="116" type="line"></point>
      <point x="441" y="116" type="line"></point>
      <point x="441" y="0" type="line"></point>
      <point x="-1" y="0" type="line"></point>
      <point x="-1" y="116" type="line"></point>
      <point x="137" y="116" type="line"></point>
      <point x="137" y="1037" type="line"></point>
      <point x="-1" y="1037" type="line"></point>
      <point x="-1" y="1153" type="line"></point>
      <point x="441" y="1153" type="line"></point>
      <point x="441" y="1037" type="line"></point>
      <point x="297" y="1037" type="line"></point>
      <point x="297" y="667" type="line"></point>
      <point x="848" y="667" type="line"></point>
      <point x="848" y="1037" type="line"></point>
      <point x="706" y="1037" type="line"></point>
    </contour>
  </outline>
</glyph>
<glyph name="I" format="1">
  <advance width="737"></advance>
  <unicode hex="0049"></unicode>
  <outline>
    <contour>
      <point x="154" y="1153" type="line"></point>
      <point x="582" y="1153" type="line"></point>
      <point x="582" y="1037" type="line"></point>
      <point x="450" y="1037" type="line"></point>
      <point x="450" y="116" type="line"></point>
      <point x="582" y="116" type="line"></point>
      <point x="582" y="0" type="line"></point>
      <point x="154" y="0" type="line"></point>
      <point x="154" y="116" type="line"></point>
      <point x="288" y="116" type="line"></point>
      <point x="288" y="1037" type="line"></point>
      <point x="154" y="1037" type="line"></point>
    </contour>
  </outline>
</glyph>
<glyph name="J" format="1">
  <advance width="737"></advance>
  <unicode hex="004A"></unicode>
  <outline>
    <contour>
      <point x="210" y="1153" type="line"></point>
      <point x="681" y="1153" type="line"></point>
      <point x="681" y="1037" type="line"></point>
      <point x="528" y="1037" type="line"></point>
      <point x="528" y="99" type="line" smooth="yes"></point>
      <point x="528" y="-74"></point>
      <point x="440" y="-181"></point>
      <point x="281" y="-179" type="curve"></point>
      <point x="134" y="-179" type="line"></point>
      <point x="134" y="-44" type="line"></point>
      <point x="254" y="-44" type="line" smooth="yes"></point>
      <point x="344" y="-44"></point>
      <point x="365" y="9"></point>
      <point x="365" y="104" type="curve" smooth="yes"></point>
      <point x="365" y="1037" type="line"></point>
      <point x="210" y="1037" type="line"></point>
    </contour>
  </outline>
</glyph>
<glyph name="K" format="1">
  <advance width="1109"></advance>
  <unicode hex="004B"></unicode>
  <outline>
    <contour>
      <point x="617" y="1153" type="line"></point>
      <point x="1068" y="1153" type="line"></point>
      <point x="1068" y="1037" type="line"></point>
      <point x="939" y="1037" type="line"></point>
      <point x="474" y="589" type="line"></point>
      <point x="963" y="116" type="line"></point>
      <point x="1094" y="116" type="line"></point>
      <point x="1094" y="0" type="line"></point>
      <point x="613" y="0" type="line"></point>
      <point x="613" y="116" type="line"></point>
      <point x="766" y="116" type="line"></point>
      <point x="299" y="573" type="line"></point>
      <point x="299" y="116" type="line"></point>
      <point x="438" y="116" type="line"></point>
      <point x="438" y="0" type="line"></point>
      <point x="-11" y="0" type="line"></point>
      <point x="-11" y="116" type="line"></point>
      <point x="138" y="116" type="line"></point>
      <point x="138" y="1037" type="line"></point>
      <point x="-11" y="1037" type="line"></point>
      <point x="-11" y="1153" type="line"></point>
      <point x="454" y="1153" type="line"></point>
      <point x="454" y="1037" type="line"></point>
      <point x="298" y="1037" type="line"></point>
      <point x="298" y="604" type="line"></point>
      <point x="753" y="1037" type="line"></point>
      <point x="617" y="1037" type="line"></point>
    </contour>
  </outline>
</glyph>
<glyph name="L" format="1">
  <advance width="934"></advance>
  <unicode hex="004C"></unicode>
  <outline>
    <contour>
      <point x="17" y="1153" type="line"></point>
      <point x="491" y="1153" type="line"></point>
      <point x="491" y="1037" type="line"></point>
      <point x="336" y="1037" type="line"></point>
      <point x="336" y="116" type="line"></point>
      <point x="746" y="116" type="line"></point>
      <point x="746" y="452" type="line"></point>
      <point x="891" y="452" type="line"></point>
      <point x="891" y="0" type="line"></point>
      <point x="17" y="0" type="line"></point>
      <point x="17" y="116" type="line"></point>
      <point x="175" y="116" type="line"></point>
      <point x="175" y="1037" type="line"></point>
      <point x="17" y="1037" type="line"></point>
    </contour>
  </outline>
</glyph>
<glyph name="M" format="1">
  <advance width="1475"></advance>
  <unicode hex="004D"></unicode>
  <outline>
    <contour>
      <point x="1058" y="1153" type="line"></point>
      <point x="1448" y="1153" type="line"></point>
      <point x="1448" y="1037" type="line"></point>
      <point x="1301" y="1037" type="line"></point>
      <point x="1301" y="116" type="line"></point>
      <point x="1448" y="116" type="line"></point>
      <point x="1448" y="0" type="line"></point>
      <point x="1020" y="0" type="line"></point>
      <point x="1020" y="116" type="line"></point>
      <point x="1153" y="116" type="line"></point>
      <point x="1153" y="1023" type="line"></point>
      <point x="738" y="0" type="line"></point>
      <point x="696" y="0" type="line"></point>
      <point x="284" y="1022" type="line"></point>
      <point x="284" y="116" type="line"></point>
      <point x="417" y="116" type="line"></point>
      <point x="417" y="0" type="line"></point>
      <point x="3" y="0" type="line"></point>
      <point x="3" y="116" type="line"></point>
      <point x="150" y="116" type="line"></point>
      <point x="150" y="1037" type="line"></point>
      <point x="3" y="1037" type="line"></point>
      <point x="3" y="1153" type="line"></point>
      <point x="387" y="1153" type="line"></point>
      <point x="720" y="317" type="line"></point>
    </contour>
  </outline>
</glyph>
<glyph name="N" format="1">
  <advance width="1201"></advance>
  <unicode hex="004E"></unicode>
  <outline>
    <contour>
      <point x="749" y="1153" type="line"></point>
      <point x="1221" y="1153" type="line"></point>
      <point x="1221" y="1037" type="line"></point>
      <point x="1048" y="1037" type="line"></point>
      <point x="1048" y="0" type="line"></point>
      <point x="865" y="0" type="line"></point>
      <point x="287" y="997" type="line"></point>
      <point x="287" y="116" type="line"></point>
      <point x="456" y="116" type="line"></point>
      <point x="456" y="0" type="line"></point>
      <point x="-15" y="0" type="line"></point>
      <point x="-15" y="116" type="line"></point>
      <point x="153" y="116" type="line"></point>
      <point x="153" y="1037" type="line"></point>
      <point x="-15" y="1037" type="line"></point>
      <point x="-15" y="1153" type="line"></point>
      <point x="366" y="1153" type="line"></point>
      <point x="914" y="211" type="line"></point>
      <point x="914" y="1037" type="line"></point>
      <point x="749" y="1037" type="line"></point>
    </contour>
  </outline>
</glyph>
<glyph name="O" format="1">
  <advance width="1327"></advance>
  <unicode hex="004F"></unicode>
  <outline>
    <contour>
      <point x="79" y="575" type="curve" smooth="yes"></point>
      <point x="79" y="923"></point>
      <point x="319" y="1171"></point>
      <point x="672" y="1171" type="curve" smooth="yes"></point>
      <point x="1026" y="1171"></point>
      <point x="1269" y="924"></point>
      <point x="1269" y="575" type="curve" smooth="yes"></point>
      <point x="1269" y="234"></point>
      <point x="1024" y="-18"></point>
      <point x="673" y="-18" type="curve"></point>
      <point x="322" y="-16"></point>
      <point x="79" y="229"></point>
    </contour>
    <contour>
      <point x="1091" y="576" type="curve" smooth="yes"></point>
      <point x="1091" y="831"></point>
      <point x="924" y="1036"></point>
      <point x="673" y="1037" type="curve"></point>
      <point x="423" y="1036"></point>
      <point x="256" y="830"></point>
      <point x="256" y="576" type="curve" smooth="yes"></point>
      <point x="256" y="324"></point>
      <point x="424" y="116"></point>
      <point x="673" y="116" type="curve" smooth="yes"></point>
      <point x="925" y="116"></point>
      <point x="1091" y="322"></point>
    </contour>
  </outline>
</glyph>
<glyph name="P" format="1">
  <advance width="983"></advance>
  <unicode hex="0050"></unicode>
  <outline>
    <contour>
      <point x="12" y="1153" type="line"></point>
      <point x="548" y="1153" type="line" smooth="yes"></point>
      <point x="787" y="1153"></point>
      <point x="941" y="1039"></point>
      <point x="941" y="805" type="curve" smooth="yes"></point>
      <point x="941" y="553"></point>
      <point x="753" y="472"></point>
      <point x="471" y="472" type="curve" smooth="yes"></point>
      <point x="325" y="472" type="line"></point>
      <point x="325" y="116" type="line"></point>
      <point x="483" y="116" type="line"></point>
      <point x="483" y="0" type="line"></point>
      <point x="12" y="0" type="line"></point>
      <point x="12" y="116" type="line"></point>
      <point x="163" y="116" type="line"></point>
      <point x="163" y="1037" type="line"></point>
      <point x="12" y="1037" type="line"></point>
    </contour>
    <contour>
      <point x="776" y="807" type="curve"></point>
      <point x="776" y="952"></point>
      <point x="695" y="1037"></point>
      <point x="550" y="1037" type="curve" smooth="yes"></point>
      <point x="323" y="1037" type="line"></point>
      <point x="323" y="577" type="line"></point>
      <point x="501" y="577" type="line" smooth="yes"></point>
      <point x="687" y="577"></point>
      <point x="773" y="645"></point>
    </contour>
  </outline>
</glyph>
<glyph name="Q" format="1">
  <advance width="1386"></advance>
  <unicode hex="0051"></unicode>
  <outline>
    <contour>
      <point x="74" y="573" type="curve" smooth="yes"></point>
      <point x="74" y="924"></point>
      <point x="316" y="1171"></point>
      <point x="673" y="1171" type="curve" smooth="yes"></point>
      <point x="1017" y="1171"></point>
      <point x="1265" y="921"></point>
      <point x="1265" y="586" type="curve" smooth="yes"></point>
      <point x="1265" y="251"></point>
      <point x="1044" y="36"></point>
      <point x="752" y="4" type="curve"></point>
      <point x="842" y="-75"></point>
      <point x="925" y="-97"></point>
      <point x="995" y="-97" type="curve" smooth="yes"></point>
      <point x="1054" y="-97"></point>
      <point x="1103" y="-81"></point>
      <point x="1138" y="-70" type="curve"></point>
      <point x="1183" y="-192" type="line"></point>
      <point x="1125" y="-214"></point>
      <point x="1066" y="-229"></point>
      <point x="1001" y="-229" type="curve" smooth="yes"></point>
      <point x="871" y="-229"></point>
      <point x="719" y="-169"></point>
      <point x="520" y="9" type="curve"></point>
      <point x="266" y="67"></point>
      <point x="74" y="273"></point>
    </contour>
    <contour>
      <point x="1087" y="574" type="curve" smooth="yes"></point>
      <point x="1087" y="830"></point>
      <point x="921" y="1036"></point>
      <point x="668" y="1037" type="curve"></point>
      <point x="417" y="1036"></point>
      <point x="251" y="829"></point>
      <point x="251" y="574" type="curve" smooth="yes"></point>
      <point x="251" y="319"></point>
      <point x="415" y="116"></point>
      <point x="668" y="116" type="curve" smooth="yes"></point>
      <point x="923" y="116"></point>
      <point x="1087" y="317"></point>
    </contour>
  </outline>
</glyph>
<glyph name="R" format="1">
  <advance width="1016"></advance>
  <unicode hex="0052"></unicode>
  <outline>
    <contour>
      <point x="-15" y="1153" type="line"></point>
      <point x="535" y="1153" type="line" smooth="yes"></point>
      <point x="770" y="1153"></point>
      <point x="915" y="1067"></point>
      <point x="915" y="855" type="curve" smooth="yes"></point>
      <point x="915" y="691"></point>
      <point x="829" y="592"></point>
      <point x="656" y="558" type="curve"></point>
      <point x="890" y="116" type="line"></point>
      <point x="1036" y="116" type="line"></point>
      <point x="1036" y="0" type="line"></point>
      <point x="783" y="0" type="line"></point>
      <point x="500" y="538" type="line"></point>
      <point x="307" y="538" type="line"></point>
      <point x="307" y="116" type="line"></point>
      <point x="463" y="116" type="line"></point>
      <point x="463" y="0" type="line"></point>
      <point x="-15" y="0" type="line"></point>
      <point x="-15" y="116" type="line"></point>
      <point x="147" y="116" type="line"></point>
      <point x="147" y="1037" type="line"></point>
      <point x="-15" y="1037" type="line"></point>
    </contour>
    <contour>
      <point x="749" y="857" type="curve" smooth="yes"></point>
      <point x="749" y="979"></point>
      <point x="651" y="1037"></point>
      <point x="523" y="1037" type="curve" smooth="yes"></point>
      <point x="307" y="1037" type="line"></point>
      <point x="307" y="657" type="line"></point>
      <point x="530" y="657" type="line"></point>
      <point x="671" y="658"></point>
      <point x="749" y="726"></point>
    </contour>
  </outline>
</glyph>
<glyph name="S" format="1">
  <advance width="1016"></advance>
  <unicode hex="0053"></unicode>
  <outline>
    <contour>
      <point x="102" y="858" type="curve" smooth="yes"></point>
      <point x="102" y="1059"></point>
      <point x="258" y="1171"></point>
      <point x="458" y="1171" type="curve" smooth="yes"></point>
      <point x="559" y="1171"></point>
      <point x="649" y="1140"></point>
      <point x="727" y="1079" type="curve"></point>
      <point x="727" y="1153" type="line"></point>
      <point x="862" y="1153" type="line"></point>
      <point x="862" y="818" type="line"></point>
      <point x="727" y="818" type="line"></point>
      <point x="727" y="908" type="line"></point>
      <point x="664" y="994"></point>
      <point x="580" y="1037"></point>
      <point x="476" y="1037" type="curve" smooth="yes"></point>
      <point x="345" y="1037"></point>
      <point x="258" y="984"></point>
      <point x="258" y="855" type="curve" smooth="yes"></point>
      <point x="258" y="563"></point>
      <point x="924" y="771"></point>
      <point x="924" y="303" type="curve" smooth="yes"></point>
      <point x="924" y="105"></point>
      <point x="751" y="-18"></point>
      <point x="542" y="-18" type="curve" smooth="yes"></point>
      <point x="428" y="-18"></point>
      <point x="329" y="17"></point>
      <point x="245" y="87" type="curve"></point>
      <point x="245" y="0" type="line"></point>
      <point x="110" y="0" type="line"></point>
      <point x="110" y="387" type="line"></point>
      <point x="245" y="387" type="line"></point>
      <point x="245" y="271" type="line"></point>
      <point x="324" y="168"></point>
      <point x="415" y="116"></point>
      <point x="516" y="116" type="curve" smooth="yes"></point>
      <point x="648" y="116"></point>
      <point x="759" y="178"></point>
      <point x="759" y="298" type="curve" smooth="yes"></point>
      <point x="759" y="642"></point>
      <point x="102" y="399"></point>
    </contour>
  </outline>
</glyph>
<glyph name="T" format="1">
  <advance width="831"></advance>
  <unicode hex="0054"></unicode>
  <outline>
    <contour>
      <point x="-39" y="1153" type="line"></point>
      <point x="907" y="1153" type="line"></point>
      <point x="907" y="808" type="line"></point>
      <point x="776" y="808" type="line"></point>
      <point x="776" y="1037" type="line"></point>
      <point x="517" y="1037" type="line"></point>
      <point x="517" y="116" type="line"></point>
      <point x="691" y="116" type="line"></point>
      <point x="691" y="0" type="line"></point>
      <point x="179" y="0" type="line"></point>
      <point x="179" y="116" type="line"></point>
      <point x="354" y="116" type="line"></point>
      <point x="354" y="1037" type="line"></point>
      <point x="89" y="1037" type="line"></point>
      <point x="89" y="808" type="line"></point>
      <point x="-39" y="808" type="line"></point>
    </contour>
  </outline>
</glyph>
<glyph name="U" format="1">
  <advance width="1109"></advance>
  <unicode hex="0055"></unicode>
  <outline>
    <contour>
      <point x="662" y="1153" type="line"></point>
      <point x="1113" y="1153" type="line"></point>
      <point x="1113" y="1037" type="line"></point>
      <point x="966" y="1037" type="line"></point>
      <point x="966" y="380" type="line" smooth="yes"></point>
      <point x="966" y="106"></point>
      <point x="809" y="-18"></point>
      <point x="534" y="-18" type="curve" smooth="yes"></point>
      <point x="270" y="-18"></point>
      <point x="118" y="116"></point>
      <point x="118" y="382" type="curve" smooth="yes"></point>
      <point x="118" y="1037" type="line"></point>
      <point x="-29" y="1037" type="line"></point>
      <point x="-29" y="1153" type="line"></point>
      <point x="422" y="1153" type="line"></point>
      <point x="422" y="1037" type="line"></point>
      <point x="280" y="1037" type="line"></point>
      <point x="280" y="378" type="line" smooth="yes"></point>
      <point x="280" y="195"></point>
      <point x="363" y="116"></point>
      <point x="541" y="116" type="curve" smooth="yes"></point>
      <point x="732" y="116"></point>
      <point x="804" y="202"></point>
      <point x="804" y="389" type="curve" smooth="yes"></point>
      <point x="804" y="1037" type="line"></point>
      <point x="662" y="1037" type="line"></point>
    </contour>
  </outline>
</glyph>
<glyph name="V" format="1">
  <advance width="1032"></advance>
  <unicode hex="0056"></unicode>
  <outline>
    <contour>
      <point x="686" y="1153" type="line"></point>
      <point x="1131" y="1153" type="line"></point>
      <point x="1131" y="1037" type="line"></point>
      <point x="985" y="1037" type="line"></point>
      <point x="587" y="0" type="line"></point>
      <point x="433" y="0" type="line"></point>
      <point x="30" y="1037" type="line"></point>
      <point x="-114" y="1037" type="line"></point>
      <point x="-114" y="1153" type="line"></point>
      <point x="339" y="1153" type="line"></point>
      <point x="339" y="1037" type="line"></point>
      <point x="198" y="1037" type="line"></point>
      <point x="515" y="184" type="line"></point>
      <point x="827" y="1037" type="line"></point>
      <point x="686" y="1037" type="line"></point>
    </contour>
  </outline>
</glyph>
<glyph name="W" format="1">
  <advance width="1425"></advance>
  <unicode hex="0057"></unicode>
  <outline>
    <contour>
      <point x="1180" y="1153" type="line"></point>
      <point x="1609" y="1153" type="line"></point>
      <point x="1609" y="1037" type="line"></point>
      <point x="1465" y="1037" type="line"></point>
      <point x="1155" y="0" type="line"></point>
      <point x="997" y="0" type="line"></point>
      <point x="712" y="949" type="line"></point>
      <point x="434" y="0" type="line"></point>
      <point x="276" y="0" type="line"></point>
      <point x="-38" y="1037" type="line"></point>
      <point x="-181" y="1037" type="line"></point>
      <point x="-181" y="1153" type="line"></point>
      <point x="258" y="1153" type="line"></point>
      <point x="258" y="1037" type="line"></point>
      <point x="121" y="1037" type="line"></point>
      <point x="359" y="210" type="line"></point>
      <point x="599" y="1037" type="line"></point>
      <point x="459" y="1037" type="line"></point>
      <point x="459" y="1153" type="line"></point>
      <point x="978" y="1153" type="line"></point>
      <point x="978" y="1037" type="line"></point>
      <point x="839" y="1037" type="line"></point>
      <point x="1080" y="210" type="line"></point>
      <point x="1310" y="1037" type="line"></point>
      <point x="1180" y="1037" type="line"></point>
    </contour>
  </outline>
</glyph>
<glyph name="X" format="1">
  <advance width="1081"></advance>
  <unicode hex="0058"></unicode>
  <outline>
    <contour>
      <point x="624" y="1153" type="line"></point>
      <point x="1070" y="1153" type="line"></point>
      <point x="1070" y="1037" type="line"></point>
      <point x="919" y="1037" type="line"></point>
      <point x="617" y="595" type="line"></point>
      <point x="945" y="116" type="line"></point>
      <point x="1100" y="116" type="line"></point>
      <point x="1100" y="0" type="line"></point>
      <point x="628" y="0" type="line"></point>
      <point x="628" y="116" type="line"></point>
      <point x="767" y="116" type="line"></point>
      <point x="531" y="470" type="line"></point>
      <point x="295" y="116" type="line"></point>
      <point x="439" y="116" type="line"></point>
      <point x="439" y="0" type="line"></point>
      <point x="-20" y="0" type="line"></point>
      <point x="-20" y="116" type="line"></point>
      <point x="139" y="116" type="line"></point>
      <point x="452" y="582" type="line"></point>
      <point x="143" y="1037" type="line"></point>
      <point x="-9" y="1037" type="line"></point>
      <point x="-9" y="1153" type="line"></point>
      <point x="451" y="1153" type="line"></point>
      <point x="451" y="1037" type="line"></point>
      <point x="316" y="1037" type="line"></point>
      <point x="538" y="705" type="line"></point>
      <point x="764" y="1037" type="line"></point>
      <point x="624" y="1037" type="line"></point>
    </contour>
  </outline>
</glyph>
<glyph name="Y" format="1">
  <advance width="934"></advance>
  <unicode hex="0059"></unicode>
  <outline>
    <contour>
      <point x="580" y="1153" type="line"></point>
      <point x="1040" y="1153" type="line"></point>
      <point x="1040" y="1037" type="line"></point>
      <point x="884" y="1037" type="line"></point>
      <point x="541" y="530" type="line"></point>
      <point x="541" y="116" type="line"></point>
      <point x="705" y="116" type="line"></point>
      <point x="705" y="0" type="line"></point>
      <point x="222" y="0" type="line"></point>
      <point x="222" y="116" type="line"></point>
      <point x="381" y="116" type="line"></point>
      <point x="381" y="530" type="line"></point>
      <point x="23" y="1037" type="line"></point>
      <point x="-124" y="1037" type="line"></point>
      <point x="-124" y="1153" type="line"></point>
      <point x="349" y="1153" type="line"></point>
      <point x="349" y="1037" type="line"></point>
      <point x="199" y="1037" type="line"></point>
      <point x="473" y="648" type="line"></point>
      <point x="730" y="1037" type="line"></point>
      <point x="580" y="1037" type="line"></point>
    </contour>
  </outline>
</glyph>
<glyph name="Z" format="1">
  <advance width="1016"></advance>
  <unicode hex="005A"></unicode>
  <outline>
    <contour>
      <point x="80" y="1153" type="line"></point>
      <point x="912" y="1153" type="line"></point>
      <point x="912" y="1041" type="line"></point>
      <point x="245" y="116" type="line"></point>
      <point x="793" y="116" type="line"></point>
      <point x="793" y="335" type="line"></point>
      <point x="922" y="335" type="line"></point>
      <point x="922" y="0" type="line"></point>
      <point x="50" y="0" type="line"></point>
      <point x="50" y="128" type="line"></point>
      <point x="707" y="1037" type="line"></point>
      <point x="209" y="1037" type="line"></point>
      <point x="209" y="818" type="line"></point>
      <point x="80" y="818" type="line"></point>
    </contour>
  </outline>
</glyph>
<glyph name="bracketleft" format="1">
  <advance width="646"></advance>
  <unicode hex="005B"></unicode>
  <outline>
    <contour>
      <point x="154" y="1262" type="line"></point>
      <point x="548" y="1262" type="line"></point>
      <point x="548" y="1153" type="line"></point>
      <point x="297" y="1153" type="line"></point>
      <point x="297" y="-112" type="line"></point>
      <point x="548" y="-112" type="line"></point>
      <point x="548" y="-219" type="line"></point>
      <point x="154" y="-219" type="line"></point>
    </contour>
  </outline>
</glyph>
<glyph name="backslash" format="1">
  <advance width="737"></advance>
  <unicode hex="005C"></unicode>
  <outline>
    <contour>
      <point x="60" y="1171" type="line"></point>
      <point x="189" y="1171" type="line"></point>
      <point x="623" y="-18" type="line"></point>
      <point x="494" y="-18" type="line"></point>
    </contour>
  </outline>
</glyph>
<glyph name="bracketright" format="1">
  <advance width="786"></advance>
  <unicode hex="005D"></unicode>
  <outline>
    <contour>
      <point x="221" y="1262" type="line"></point>
      <point x="615" y="1262" type="line"></point>
      <point x="615" y="-219" type="line"></point>
      <point x="221" y="-219" type="line"></point>
      <point x="221" y="-112" type="line"></point>
      <point x="472" y="-112" type="line"></point>
      <point x="472" y="1153" type="line"></point>
      <point x="221" y="1153" type="line"></point>
    </contour>
  </outline>
</glyph>
<glyph name="asciicircum" format="1">
  <advance width="924"></advance>
  <unicode hex="005E"></unicode>
  <outline>
    <contour>
      <point x="389" y="1171" type="line"></point>
      <point x="542" y="1171" type="line"></point>
      <point x="838" y="605" type="line"></point>
      <point x="687" y="605" type="line"></point>
      <point x="465" y="1040" type="line"></point>
      <point x="239" y="605" type="line"></point>
      <point x="88" y="605" type="line"></point>
    </contour>
  </outline>
</glyph>
<glyph name="underscore" format="1">
  <advance width="1081"></advance>
  <unicode hex="005F"></unicode>
  <outline>
    <contour>
      <point x="221" y="-82" type="line"></point>
      <point x="1119" y="-82" type="line"></point>
      <point x="1119" y="-199" type="line"></point>
      <point x="221" y="-199" type="line"></point>
    </contour>
  </outline>
</glyph>
<glyph name="grave" format="1">
  <advance width="646"></advance>
  <unicode hex="0060"></unicode>
  <outline>
    <contour>
      <point x="216" y="1171" type="line"></point>
      <point x="423" y="1171" type="line"></point>
      <point x="522" y="914" type="line"></point>
      <point x="403" y="914" type="line"></point>
    </contour>
  </outline>
</glyph>
<glyph name="a" format="1">
  <advance width="924"></advance>
  <unicode hex="0061"></unicode>
  <outline>
    <contour>
      <point x="130" y="708" type="line"></point>
      <point x="205" y="783"></point>
      <point x="305" y="820"></point>
      <point x="432" y="820" type="curve" smooth="yes"></point>
      <point x="646" y="820"></point>
      <point x="772" y="743"></point>
      <point x="772" y="554" type="curve" smooth="yes"></point>
      <point x="772" y="116" type="line"></point>
      <point x="916" y="116" type="line"></point>
      <point x="916" y="0" type="line"></point>
      <point x="639" y="0" type="line"></point>
      <point x="639" y="21"></point>
      <point x="637" y="93"></point>
      <point x="637" y="93" type="curve"></point>
      <point x="577" y="19"></point>
      <point x="447" y="-18"></point>
      <point x="359" y="-18" type="curve" smooth="yes"></point>
      <point x="210" y="-18"></point>
      <point x="84" y="68"></point>
      <point x="84" y="204" type="curve" smooth="yes"></point>
      <point x="83" y="405"></point>
      <point x="217" y="470"></point>
      <point x="430" y="470" type="curve" smooth="yes"></point>
      <point x="491" y="470"></point>
      <point x="556" y="463"></point>
      <point x="624" y="450" type="curve"></point>
      <point x="624" y="547" type="line" smooth="yes"></point>
      <point x="624" y="646"></point>
      <point x="562" y="698"></point>
      <point x="437" y="701" type="curve"></point>
      <point x="340" y="701"></point>
      <point x="251" y="665"></point>
      <point x="195" y="614" type="curve"></point>
    </contour>
    <contour>
      <point x="624" y="356" type="line"></point>
      <point x="598" y="361"></point>
      <point x="501" y="372"></point>
      <point x="448" y="372" type="curve" smooth="yes"></point>
      <point x="314" y="372"></point>
      <point x="224" y="342"></point>
      <point x="224" y="222" type="curve" smooth="yes"></point>
      <point x="224" y="145"></point>
      <point x="283" y="93"></point>
      <point x="374" y="93" type="curve" smooth="yes"></point>
      <point x="477" y="93"></point>
      <point x="561" y="123"></point>
      <point x="624" y="182" type="curve"></point>
    </contour>
  </outline>
</glyph>
<glyph name="b" format="1">
  <advance width="1081"></advance>
  <unicode hex="0062"></unicode>
  <outline>
    <contour>
      <point x="12" y="1153" type="line"></point>
      <point x="303" y="1153" type="line"></point>
      <point x="303" y="707" type="line"></point>
      <point x="386" y="782"></point>
      <point x="481" y="820"></point>
      <point x="600" y="820" type="curve" smooth="yes"></point>
      <point x="836" y="820"></point>
      <point x="982" y="636"></point>
      <point x="983" y="401" type="curve" smooth="yes"></point>
      <point x="983" y="167"></point>
      <point x="837" y="-18"></point>
      <point x="601" y="-18" type="curve" smooth="yes"></point>
      <point x="480" y="-18"></point>
      <point x="360" y="30"></point>
      <point x="302" y="111" type="curve"></point>
      <point x="298" y="0" type="line"></point>
      <point x="21" y="0" type="line"></point>
      <point x="21" y="116" type="line"></point>
      <point x="155" y="116" type="line"></point>
      <point x="155" y="1037" type="line"></point>
      <point x="12" y="1037" type="line"></point>
    </contour>
    <contour>
      <point x="827" y="396" type="curve" smooth="yes"></point>
      <point x="827" y="567"></point>
      <point x="744" y="695"></point>
      <point x="566" y="695" type="curve" smooth="yes"></point>
      <point x="477" y="695"></point>
      <point x="383" y="652"></point>
      <point x="303" y="564" type="curve"></point>
      <point x="303" y="229" type="line"></point>
      <point x="388" y="121"></point>
      <point x="514" y="107"></point>
      <point x="583" y="107" type="curve" smooth="yes"></point>
      <point x="744" y="107"></point>
      <point x="827" y="236"></point>
    </contour>
  </outline>
</glyph>
<glyph name="c" format="1">
  <advance width="934"></advance>
  <unicode hex="0063"></unicode>
  <outline>
    <contour>
      <point x="98" y="408" type="curve" smooth="yes"></point>
      <point x="98" y="648"></point>
      <point x="273" y="820"></point>
      <point x="505" y="820" type="curve" smooth="yes"></point>
      <point x="596" y="820"></point>
      <point x="698" y="783"></point>
      <point x="733" y="713" type="curve"></point>
      <point x="729" y="805" type="line"></point>
      <point x="862" y="805" type="line"></point>
      <point x="862" y="517" type="line"></point>
      <point x="733" y="517" type="line"></point>
      <point x="702" y="629"></point>
      <point x="648" y="695"></point>
      <point x="513" y="695" type="curve" smooth="yes"></point>
      <point x="338" y="695"></point>
      <point x="254" y="577"></point>
      <point x="254" y="400" type="curve" smooth="yes"></point>
      <point x="254" y="225"></point>
      <point x="342" y="107"></point>
      <point x="510" y="107" type="curve" smooth="yes"></point>
      <point x="631" y="107"></point>
      <point x="721" y="153"></point>
      <point x="782" y="246" type="curve"></point>
      <point x="871" y="157" type="line"></point>
      <point x="794" y="40"></point>
      <point x="672" y="-19"></point>
      <point x="506" y="-19" type="curve" smooth="yes"></point>
      <point x="257" y="-19"></point>
      <point x="98" y="143"></point>
    </contour>
  </outline>
</glyph>
<glyph name="d" format="1">
  <advance width="1016"></advance>
  <unicode hex="0064"></unicode>
  <outline>
    <contour>
      <point x="589" y="1153" type="line"></point>
      <point x="899" y="1153" type="line"></point>
      <point x="899" y="116" type="line"></point>
      <point x="1051" y="116" type="line"></point>
      <point x="1051" y="0" type="line"></point>
      <point x="752" y="0" type="line"></point>
      <point x="751" y="99" type="line"></point>
      <point x="671" y="21"></point>
      <point x="589" y="-18"></point>
      <point x="476" y="-18" type="curve" smooth="yes"></point>
      <point x="245" y="-18"></point>
      <point x="74" y="152"></point>
      <point x="74" y="390" type="curve" smooth="yes"></point>
      <point x="74" y="629"></point>
      <point x="234" y="820"></point>
      <point x="470" y="820" type="curve" smooth="yes"></point>
      <point x="585" y="820"></point>
      <point x="669" y="784"></point>
      <point x="751" y="713" type="curve"></point>
      <point x="751" y="1037" type="line"></point>
      <point x="589" y="1037" type="line"></point>
    </contour>
    <contour>
      <point x="751" y="567" type="line"></point>
      <point x="661" y="653"></point>
      <point x="588" y="695"></point>
      <point x="502" y="695" type="curve" smooth="yes"></point>
      <point x="333" y="695"></point>
      <point x="230" y="566"></point>
      <point x="230" y="400" type="curve" smooth="yes"></point>
      <point x="230" y="232"></point>
      <point x="335" y="107"></point>
      <point x="504" y="107" type="curve" smooth="yes"></point>
      <point x="590" y="107"></point>
      <point x="661" y="144"></point>
      <point x="751" y="222" type="curve"></point>
    </contour>
  </outline>
</glyph>
<glyph name="e" format="1">
  <advance width="924"></advance>
  <unicode hex="0065"></unicode>
  <outline>
    <contour>
      <point x="78" y="402" type="curve" smooth="yes"></point>
      <point x="78" y="646"></point>
      <point x="267" y="820"></point>
      <point x="511" y="820" type="curve" smooth="yes"></point>
      <point x="768" y="820"></point>
      <point x="900" y="631"></point>
      <point x="900" y="365" type="curve"></point>
      <point x="241" y="365" type="line"></point>
      <point x="250" y="209"></point>
      <point x="354" y="108"></point>
      <point x="517" y="107" type="curve" smooth="yes"></point>
      <point x="625" y="107"></point>
      <point x="711" y="131"></point>
      <point x="796" y="224" type="curve"></point>
      <point x="870" y="139" type="line"></point>
      <point x="783" y="35"></point>
      <point x="686" y="-18"></point>
      <point x="517" y="-18" type="curve" smooth="yes"></point>
      <point x="261" y="-18"></point>
      <point x="78" y="151"></point>
    </contour>
    <contour>
      <point x="756" y="467" type="line"></point>
      <point x="740" y="599"></point>
      <point x="661" y="695"></point>
      <point x="515" y="695" type="curve" smooth="yes"></point>
      <point x="358" y="695"></point>
      <point x="268" y="611"></point>
      <point x="243" y="467" type="curve"></point>
    </contour>
  </outline>
</glyph>
<glyph name="f" format="1">
  <advance width="646"></advance>
  <unicode hex="0066"></unicode>
  <outline>
    <contour>
      <point x="210" y="943" type="line" smooth="yes"></point>
      <point x="210" y="1084"></point>
      <point x="313" y="1171"></point>
      <point x="461" y="1171" type="curve" smooth="yes"></point>
      <point x="589" y="1171"></point>
      <point x="658" y="1117"></point>
      <point x="681" y="996" type="curve"></point>
      <point x="571" y="963" type="line"></point>
      <point x="554" y="1026"></point>
      <point x="518" y="1054"></point>
      <point x="470" y="1054" type="curve" smooth="yes"></point>
      <point x="408" y="1054"></point>
      <point x="358" y="1013"></point>
      <point x="358" y="934" type="curve" smooth="yes"></point>
      <point x="358" y="805" type="line"></point>
      <point x="521" y="805" type="line"></point>
      <point x="521" y="689" type="line"></point>
      <point x="358" y="689" type="line"></point>
      <point x="358" y="116" type="line"></point>
      <point x="520" y="116" type="line"></point>
      <point x="520" y="0" type="line"></point>
      <point x="69" y="0" type="line"></point>
      <point x="69" y="116" type="line"></point>
      <point x="210" y="116" type="line"></point>
      <point x="210" y="689" type="line"></point>
      <point x="81" y="689" type="line"></point>
      <point x="81" y="805" type="line"></point>
      <point x="210" y="805" type="line"></point>
    </contour>
  </outline>
</glyph>
<glyph name="g" format="1">
  <advance width="1016"></advance>
  <unicode hex="0067"></unicode>
  <outline>
    <contour>
      <point x="74" y="398" type="curve" smooth="yes"></point>
      <point x="74" y="624"></point>
      <point x="234" y="820"></point>
      <point x="491" y="820" type="curve" smooth="yes"></point>
      <point x="605" y="820"></point>
      <point x="666" y="783"></point>
      <point x="750" y="709" type="curve"></point>
      <point x="750" y="805" type="line"></point>
      <point x="1049" y="805" type="line"></point>
      <point x="1049" y="689" type="line"></point>
      <point x="898" y="689" type="line"></point>
      <point x="898" y="-3" type="line" smooth="yes"></point>
      <point x="898" y="-221"></point>
      <point x="718" y="-320"></point>
      <point x="486" y="-320" type="curve" smooth="yes"></point>
      <point x="370" y="-320"></point>
      <point x="275" y="-298"></point>
      <point x="201" y="-253" type="curve"></point>
      <point x="248" y="-143" type="line"></point>
      <point x="317" y="-178"></point>
      <point x="394" y="-196"></point>
      <point x="478" y="-196" type="curve" smooth="yes"></point>
      <point x="616" y="-196"></point>
      <point x="750" y="-153"></point>
      <point x="750" y="-27" type="curve" smooth="yes"></point>
      <point x="750" y="93" type="line"></point>
      <point x="727" y="65"></point>
      <point x="640" y="0"></point>
      <point x="494" y="0" type="curve" smooth="yes"></point>
      <point x="227" y="0"></point>
      <point x="74" y="182"></point>
    </contour>
    <contour>
      <point x="750" y="571" type="line"></point>
      <point x="663" y="654"></point>
      <point x="583" y="695"></point>
      <point x="498" y="695" type="curve" smooth="yes"></point>
      <point x="328" y="695"></point>
      <point x="230" y="566"></point>
      <point x="230" y="400" type="curve" smooth="yes"></point>
      <point x="230" y="237"></point>
      <point x="334" y="118"></point>
      <point x="501" y="118" type="curve" smooth="yes"></point>
      <point x="629" y="118"></point>
      <point x="707" y="171"></point>
      <point x="750" y="229" type="curve"></point>
    </contour>
  </outline>
</glyph>
<glyph name="h" format="1">
  <advance width="1016"></advance>
  <unicode hex="0068"></unicode>
  <outline>
    <contour>
      <point x="0" y="1153" type="line"></point>
      <point x="298" y="1153" type="line"></point>
      <point x="298" y="706" type="line"></point>
      <point x="373" y="767"></point>
      <point x="457" y="820"></point>
      <point x="587" y="820" type="curve" smooth="yes"></point>
      <point x="757" y="820"></point>
      <point x="858" y="732"></point>
      <point x="858" y="556" type="curve" smooth="yes"></point>
      <point x="858" y="116" type="line"></point>
      <point x="1002" y="116" type="line"></point>
      <point x="1002" y="0" type="line"></point>
      <point x="608" y="0" type="line"></point>
      <point x="608" y="116" type="line"></point>
      <point x="710" y="116" type="line"></point>
      <point x="710" y="528" type="line" smooth="yes"></point>
      <point x="710" y="639"></point>
      <point x="663" y="694"></point>
      <point x="569" y="694" type="curve" smooth="yes"></point>
      <point x="475" y="694"></point>
      <point x="381" y="646"></point>
      <point x="298" y="587" type="curve"></point>
      <point x="298" y="116" type="line"></point>
      <point x="444" y="116" type="line"></point>
      <point x="444" y="0" type="line"></point>
      <point x="-1" y="0" type="line"></point>
      <point x="-1" y="116" type="line"></point>
      <point x="150" y="116" type="line"></point>
      <point x="150" y="1037" type="line"></point>
      <point x="0" y="1037" type="line"></point>
    </contour>
  </outline>
</glyph>
<glyph name="i" format="1">
  <advance width="639"></advance>
  <unicode hex="0069"></unicode>
  <outline>
    <contour>
      <point x="104" y="805" type="line"></point>
      <point x="425" y="805" type="line"></point>
      <point x="425" y="116" type="line"></point>
      <point x="593" y="116" type="line"></point>
      <point x="593" y="0" type="line"></point>
      <point x="104" y="0" type="line"></point>
      <point x="104" y="116" type="line"></point>
      <point x="277" y="116" type="line"></point>
      <point x="277" y="689" type="line"></point>
      <point x="104" y="689" type="line"></point>
    </contour>
    <contour>
      <point x="258" y="1066" type="curve" smooth="yes"></point>
      <point x="258" y="1120"></point>
      <point x="296" y="1152"></point>
      <point x="360" y="1152" type="curve" smooth="yes"></point>
      <point x="401" y="1152"></point>
      <point x="441" y="1109"></point>
      <point x="441" y="1066" type="curve" smooth="yes"></point>
      <point x="441" y="1021"></point>
      <point x="401" y="979"></point>
      <point x="359" y="979" type="curve" smooth="yes"></point>
      <point x="299" y="979"></point>
      <point x="258" y="1010"></point>
    </contour>
  </outline>
</glyph>
<glyph name="j" format="1">
  <advance width="590"></advance>
  <unicode hex="006A"></unicode>
  <outline>
    <contour>
      <point x="118" y="805" type="line"></point>
      <point x="437" y="805" type="line"></point>
      <point x="437" y="19" type="line" smooth="yes"></point>
      <point x="437" y="-221"></point>
      <point x="375" y="-303"></point>
      <point x="154" y="-303" type="curve" smooth="yes"></point>
      <point x="63" y="-303" type="line"></point>
      <point x="63" y="-179" type="line"></point>
      <point x="170" y="-179" type="line" smooth="yes"></point>
      <point x="271" y="-179"></point>
      <point x="289" y="-113"></point>
      <point x="289" y="-8" type="curve" smooth="yes"></point>
      <point x="289" y="689" type="line"></point>
      <point x="118" y="689" type="line"></point>
    </contour>
    <contour>
      <point x="266" y="1066" type="curve" smooth="yes"></point>
      <point x="266" y="1116"></point>
      <point x="307" y="1153"></point>
      <point x="358" y="1153" type="curve" smooth="yes"></point>
      <point x="409" y="1153"></point>
      <point x="450" y="1116"></point>
      <point x="450" y="1066" type="curve" smooth="yes"></point>
      <point x="450" y="1016"></point>
      <point x="409" y="979"></point>
      <point x="358" y="979" type="curve" smooth="yes"></point>
      <point x="307" y="979"></point>
      <point x="266" y="1016"></point>
    </contour>
  </outline>
</glyph>
<glyph name="k" format="1">
  <advance width="924"></advance>
  <unicode hex="006B"></unicode>
  <outline>
    <contour>
      <point x="3" y="1153" type="line"></point>
      <point x="304" y="1153" type="line"></point>
      <point x="304" y="430" type="line"></point>
      <point x="626" y="689" type="line"></point>
      <point x="494" y="689" type="line"></point>
      <point x="494" y="805" type="line"></point>
      <point x="941" y="805" type="line"></point>
      <point x="941" y="689" type="line"></point>
      <point x="802" y="689" type="line"></point>
      <point x="477" y="415" type="line"></point>
      <point x="809" y="116" type="line"></point>
      <point x="949" y="116" type="line"></point>
      <point x="949" y="0" type="line"></point>
      <point x="528" y="0" type="line"></point>
      <point x="528" y="116" type="line"></point>
      <point x="624" y="116" type="line"></point>
      <point x="304" y="405" type="line"></point>
      <point x="304" y="116" type="line"></point>
      <point x="409" y="116" type="line"></point>
      <point x="409" y="0" type="line"></point>
      <point x="24" y="0" type="line"></point>
      <point x="24" y="116" type="line"></point>
      <point x="156" y="116" type="line"></point>
      <point x="156" y="1037" type="line"></point>
      <point x="3" y="1037" type="line"></point>
    </contour>
  </outline>
</glyph>
<glyph name="l" format="1">
  <advance width="554"></advance>
  <unicode hex="006C"></unicode>
  <outline>
    <contour>
      <point x="67" y="1153" type="line"></point>
      <point x="365" y="1153" type="line"></point>
      <point x="365" y="116" type="line"></point>
      <point x="514" y="116" type="line"></point>
      <point x="514" y="0" type="line"></point>
      <point x="72" y="0" type="line"></point>
      <point x="72" y="116" type="line"></point>
      <point x="217" y="116" type="line"></point>
      <point x="217" y="1037" type="line"></point>
      <point x="67" y="1037" type="line"></point>
    </contour>
  </outline>
</glyph>
<glyph name="m" format="1">
  <advance width="1478"></advance>
  <unicode hex="006D"></unicode>
  <outline>
    <contour>
      <point x="785" y="680" type="curve"></point>
      <point x="897" y="773"></point>
      <point x="995" y="820"></point>
      <point x="1080" y="820" type="curve" smooth="yes"></point>
      <point x="1243" y="820"></point>
      <point x="1327" y="725"></point>
      <point x="1327" y="568" type="curve" smooth="yes"></point>
      <point x="1327" y="107" type="line"></point>
      <point x="1472" y="107" type="line"></point>
      <point x="1472" y="0" type="line"></point>
      <point x="1067" y="0" type="line"></point>
      <point x="1067" y="107" type="line"></point>
      <point x="1179" y="107" type="line"></point>
      <point x="1179" y="537" type="line" smooth="yes"></point>
      <point x="1179" y="642"></point>
      <point x="1136" y="694"></point>
      <point x="1052" y="694" type="curve" smooth="yes"></point>
      <point x="978" y="694"></point>
      <point x="861" y="631"></point>
      <point x="806" y="561" type="curve"></point>
      <point x="806" y="116" type="line"></point>
      <point x="935" y="116" type="line"></point>
      <point x="935" y="0" type="line"></point>
      <point x="546" y="0" type="line"></point>
      <point x="546" y="116" type="line"></point>
      <point x="658" y="116" type="line"></point>
      <point x="658" y="534" type="line" smooth="yes"></point>
      <point x="658" y="641"></point>
      <point x="615" y="694"></point>
      <point x="529" y="694" type="curve" smooth="yes"></point>
      <point x="422" y="694"></point>
      <point x="353" y="633"></point>
      <point x="286" y="571" type="curve"></point>
      <point x="286" y="116" type="line"></point>
      <point x="414" y="116" type="line"></point>
      <point x="414" y="0" type="line"></point>
      <point x="-11" y="0" type="line"></point>
      <point x="-11" y="116" type="line"></point>
      <point x="138" y="116" type="line"></point>
      <point x="138" y="689" type="line"></point>
      <point x="-4" y="689" type="line"></point>
      <point x="-4" y="805" type="line"></point>
      <point x="281" y="805" type="line"></point>
      <point x="286" y="698" type="line"></point>
      <point x="384" y="779"></point>
      <point x="479" y="820"></point>
      <point x="571" y="820" type="curve" smooth="yes"></point>
      <point x="676" y="820"></point>
      <point x="748" y="773"></point>
    </contour>
  </outline>
</glyph>
<glyph name="n" format="1">
  <advance width="1016"></advance>
  <unicode hex="006E"></unicode>
  <outline>
    <contour>
      <point x="314" y="691" type="line"></point>
      <point x="409" y="796"></point>
      <point x="509" y="820"></point>
      <point x="590" y="820" type="curve" smooth="yes"></point>
      <point x="749" y="820"></point>
      <point x="834" y="719"></point>
      <point x="835" y="562" type="curve"></point>
      <point x="834" y="116" type="line"></point>
      <point x="979" y="116" type="line"></point>
      <point x="979" y="0" type="line"></point>
      <point x="577" y="0" type="line"></point>
      <point x="577" y="116" type="line"></point>
      <point x="686" y="116" type="line"></point>
      <point x="686" y="507" type="line" smooth="yes"></point>
      <point x="686" y="614"></point>
      <point x="663" y="694"></point>
      <point x="562" y="694" type="curve" smooth="yes"></point>
      <point x="484" y="694"></point>
      <point x="401" y="655"></point>
      <point x="314" y="572" type="curve"></point>
      <point x="314" y="116" type="line"></point>
      <point x="462" y="116" type="line"></point>
      <point x="462" y="0" type="line"></point>
      <point x="23" y="0" type="line"></point>
      <point x="23" y="116" type="line"></point>
      <point x="166" y="116" type="line"></point>
      <point x="166" y="689" type="line"></point>
      <point x="17" y="689" type="line"></point>
      <point x="17" y="805" type="line"></point>
      <point x="310" y="805" type="line"></point>
    </contour>
  </outline>
</glyph>
<glyph name="o" format="1">
  <advance width="1032"></advance>
  <unicode hex="006F"></unicode>
  <outline>
    <contour>
      <point x="88" y="406" type="curve" smooth="yes"></point>
      <point x="88" y="647"></point>
      <point x="270" y="820"></point>
      <point x="515" y="820" type="curve" smooth="yes"></point>
      <point x="763" y="820"></point>
      <point x="941" y="645"></point>
      <point x="941" y="402" type="curve" smooth="yes"></point>
      <point x="941" y="158"></point>
      <point x="761" y="-18"></point>
      <point x="513" y="-18" type="curve" smooth="yes"></point>
      <point x="264" y="-18"></point>
      <point x="88" y="161"></point>
    </contour>
    <contour>
      <point x="785" y="401" type="curve" smooth="yes"></point>
      <point x="785" y="567"></point>
      <point x="679" y="695"></point>
      <point x="513" y="695" type="curve" smooth="yes"></point>
      <point x="348" y="695"></point>
      <point x="244" y="566"></point>
      <point x="244" y="401" type="curve" smooth="yes"></point>
      <point x="244" y="236"></point>
      <point x="349" y="108"></point>
      <point x="513" y="107" type="curve"></point>
      <point x="678" y="108"></point>
      <point x="785" y="235"></point>
    </contour>
  </outline>
</glyph>
<glyph name="p" format="1">
  <advance width="1016"></advance>
  <unicode hex="0070"></unicode>
  <outline>
    <contour>
      <point x="296" y="688" type="line"></point>
      <point x="366" y="774"></point>
      <point x="460" y="820"></point>
      <point x="577" y="820" type="curve" smooth="yes"></point>
      <point x="813" y="820"></point>
      <point x="969" y="635"></point>
      <point x="969" y="400" type="curve" smooth="yes"></point>
      <point x="969" y="147"></point>
      <point x="804" y="-18"></point>
      <point x="571" y="-18" type="curve" smooth="yes"></point>
      <point x="435" y="-18"></point>
      <point x="349" y="33"></point>
      <point x="304" y="87" type="curve"></point>
      <point x="304" y="-179" type="line"></point>
      <point x="468" y="-179" type="line"></point>
      <point x="468" y="-303" type="line"></point>
      <point x="3" y="-303" type="line"></point>
      <point x="3" y="-179" type="line"></point>
      <point x="156" y="-179" type="line"></point>
      <point x="156" y="689" type="line"></point>
      <point x="15" y="689" type="line"></point>
      <point x="15" y="805" type="line"></point>
      <point x="288" y="805" type="line"></point>
    </contour>
    <contour>
      <point x="813" y="396" type="curve" smooth="yes"></point>
      <point x="813" y="567"></point>
      <point x="720" y="695"></point>
      <point x="548" y="695" type="curve" smooth="yes"></point>
      <point x="461" y="695"></point>
      <point x="386" y="654"></point>
      <point x="304" y="571" type="curve"></point>
      <point x="304" y="211" type="line"></point>
      <point x="380" y="133"></point>
      <point x="467" y="107"></point>
      <point x="552" y="107" type="curve" smooth="yes"></point>
      <point x="721" y="107"></point>
      <point x="813" y="229"></point>
    </contour>
  </outline>
</glyph>
<glyph name="q" format="1">
  <advance width="1016"></advance>
  <unicode hex="0071"></unicode>
  <outline>
    <contour>
      <point x="78" y="402" type="curve" smooth="yes"></point>
      <point x="78" y="638"></point>
      <point x="231" y="820"></point>
      <point x="469" y="820" type="curve" smooth="yes"></point>
      <point x="589" y="820"></point>
      <point x="685" y="780"></point>
      <point x="755" y="699" type="curve"></point>
      <point x="758" y="805" type="line"></point>
      <point x="1045" y="805" type="line"></point>
      <point x="1045" y="689" type="line"></point>
      <point x="903" y="689" type="line"></point>
      <point x="903" y="-179" type="line"></point>
      <point x="1055" y="-179" type="line"></point>
      <point x="1055" y="-303" type="line"></point>
      <point x="591" y="-303" type="line"></point>
      <point x="591" y="-179" type="line"></point>
      <point x="755" y="-179" type="line"></point>
      <point x="755" y="90" type="line"></point>
      <point x="682" y="15"></point>
      <point x="594" y="-18"></point>
      <point x="476" y="-18" type="curve" smooth="yes"></point>
      <point x="239" y="-18"></point>
      <point x="78" y="166"></point>
    </contour>
    <contour>
      <point x="755" y="564" type="line"></point>
      <point x="672" y="652"></point>
      <point x="586" y="695"></point>
      <point x="496" y="695" type="curve" smooth="yes"></point>
      <point x="322" y="695"></point>
      <point x="234" y="570"></point>
      <point x="234" y="398" type="curve" smooth="yes"></point>
      <point x="234" y="230"></point>
      <point x="329" y="107"></point>
      <point x="498" y="107" type="curve" smooth="yes"></point>
      <point x="584" y="107"></point>
      <point x="674" y="143"></point>
      <point x="755" y="229" type="curve"></point>
    </contour>
  </outline>
</glyph>
<glyph name="r" format="1">
  <advance width="739"></advance>
  <unicode hex="0072"></unicode>
  <outline>
    <contour>
      <point x="362" y="629" type="line"></point>
      <point x="376" y="711"></point>
      <point x="487" y="810"></point>
      <point x="614" y="810" type="curve" smooth="yes"></point>
      <point x="662" y="810"></point>
      <point x="696" y="805"></point>
      <point x="733" y="778" type="curve"></point>
      <point x="726" y="664" type="line"></point>
      <point x="726" y="664"></point>
      <point x="678" y="684"></point>
      <point x="630" y="684" type="curve" smooth="yes"></point>
      <point x="483" y="684"></point>
      <point x="416" y="597"></point>
      <point x="379" y="490" type="curve"></point>
      <point x="379" y="116" type="line"></point>
      <point x="592" y="116" type="line"></point>
      <point x="592" y="0" type="line"></point>
      <point x="70" y="0" type="line"></point>
      <point x="70" y="116" type="line"></point>
      <point x="231" y="116" type="line"></point>
      <point x="231" y="689" type="line"></point>
      <point x="64" y="689" type="line"></point>
      <point x="64" y="805" type="line"></point>
      <point x="345" y="805" type="line"></point>
    </contour>
  </outline>
</glyph>
<glyph name="s" format="1">
  <advance width="831"></advance>
  <unicode hex="0073"></unicode>
  <outline>
    <contour>
      <point x="91" y="584" type="curve" smooth="yes"></point>
      <point x="91" y="732"></point>
      <point x="237" y="820"></point>
      <point x="380" y="820" type="curve" smooth="yes"></point>
      <point x="462" y="820"></point>
      <point x="532" y="790"></point>
      <point x="593" y="740" type="curve"></point>
      <point x="593" y="805" type="line"></point>
      <point x="722" y="805" type="line"></point>
      <point x="722" y="549" type="line"></point>
      <point x="593" y="549" type="line"></point>
      <point x="593" y="616" type="line"></point>
      <point x="546" y="673"></point>
      <point x="479" y="702"></point>
      <point x="394" y="702" type="curve" smooth="yes"></point>
      <point x="316" y="702"></point>
      <point x="232" y="670"></point>
      <point x="232" y="602" type="curve" smooth="yes"></point>
      <point x="232" y="514"></point>
      <point x="295" y="497"></point>
      <point x="396" y="480" type="curve" smooth="yes"></point>
      <point x="430" y="474"></point>
      <point x="462" y="469"></point>
      <point x="492" y="463" type="curve" smooth="yes"></point>
      <point x="664" y="430"></point>
      <point x="768" y="390"></point>
      <point x="768" y="228" type="curve" smooth="yes"></point>
      <point x="768" y="66"></point>
      <point x="628" y="-18"></point>
      <point x="458" y="-18" type="curve" smooth="yes"></point>
      <point x="364" y="-18"></point>
      <point x="273" y="15"></point>
      <point x="226" y="70" type="curve"></point>
      <point x="226" y="0" type="line"></point>
      <point x="93" y="0" type="line"></point>
      <point x="93" y="272" type="line"></point>
      <point x="226" y="272" type="line"></point>
      <point x="226" y="203" type="line"></point>
      <point x="258" y="151"></point>
      <point x="346" y="100"></point>
      <point x="445" y="100" type="curve" smooth="yes"></point>
      <point x="567" y="100"></point>
      <point x="628" y="139"></point>
      <point x="628" y="217" type="curve"></point>
      <point x="630" y="302"></point>
      <point x="552" y="316"></point>
      <point x="426" y="341" type="curve" smooth="yes"></point>
      <point x="393" y="347"></point>
      <point x="363" y="351"></point>
      <point x="335" y="358" type="curve" smooth="yes"></point>
      <point x="176" y="393"></point>
      <point x="91" y="433"></point>
    </contour>
  </outline>
</glyph>
<glyph name="t" format="1">
  <advance width="554"></advance>
  <unicode hex="0074"></unicode>
  <outline>
    <contour>
      <point x="174" y="1063" type="line"></point>
      <point x="322" y="1095" type="line"></point>
      <point x="322" y="805" type="line"></point>
      <point x="534" y="805" type="line"></point>
      <point x="525" y="689" type="line"></point>
      <point x="322" y="689" type="line"></point>
      <point x="322" y="289" type="line" smooth="yes"></point>
      <point x="322" y="175"></point>
      <point x="318" y="116"></point>
      <point x="407" y="116" type="curve" smooth="yes"></point>
      <point x="525" y="116" type="line"></point>
      <point x="525" y="0" type="line"></point>
      <point x="387" y="0" type="line" smooth="yes"></point>
      <point x="201" y="0"></point>
      <point x="174" y="95"></point>
      <point x="174" y="300" type="curve" smooth="yes"></point>
      <point x="174" y="689" type="line"></point>
      <point x="47" y="689" type="line"></point>
      <point x="47" y="805" type="line"></point>
      <point x="174" y="805" type="line"></point>
    </contour>
  </outline>
</glyph>
<glyph name="u" format="1">
  <advance width="1016"></advance>
  <unicode hex="0075"></unicode>
  <outline>
    <contour>
      <point x="527" y="805" type="line"></point>
      <point x="823" y="805" type="line"></point>
      <point x="823" y="116" type="line"></point>
      <point x="969" y="116" type="line"></point>
      <point x="969" y="0" type="line"></point>
      <point x="680" y="0" type="line"></point>
      <point x="675" y="100" type="line"></point>
      <point x="591" y="21"></point>
      <point x="506" y="-18"></point>
      <point x="406" y="-18" type="curve" smooth="yes"></point>
      <point x="240" y="-18"></point>
      <point x="143" y="75"></point>
      <point x="143" y="261" type="curve" smooth="yes"></point>
      <point x="143" y="689" type="line"></point>
      <point x="7" y="689" type="line"></point>
      <point x="7" y="805" type="line"></point>
      <point x="291" y="805" type="line"></point>
      <point x="291" y="268" type="line" smooth="yes"></point>
      <point x="291" y="161"></point>
      <point x="349" y="107"></point>
      <point x="434" y="107" type="curve" smooth="yes"></point>
      <point x="525" y="107"></point>
      <point x="601" y="155"></point>
      <point x="675" y="250" type="curve"></point>
      <point x="675" y="689" type="line"></point>
      <point x="527" y="689" type="line"></point>
    </contour>
  </outline>
</glyph>
<glyph name="v" format="1">
  <advance width="983"></advance>
  <unicode hex="0076"></unicode>
  <outline>
    <contour>
      <point x="564" y="805" type="line"></point>
      <point x="966" y="805" type="line"></point>
      <point x="966" y="689" type="line"></point>
      <point x="833" y="689" type="line"></point>
      <point x="562" y="0" type="line"></point>
      <point x="426" y="0" type="line"></point>
      <point x="134" y="689" type="line"></point>
      <point x="3" y="689" type="line"></point>
      <point x="3" y="805" type="line"></point>
      <point x="413" y="805" type="line"></point>
      <point x="413" y="689" type="line"></point>
      <point x="291" y="689" type="line"></point>
      <point x="493" y="162" type="line"></point>
      <point x="684" y="689" type="line"></point>
      <point x="564" y="689" type="line"></point>
    </contour>
  </outline>
</glyph>
<glyph name="w" format="1">
  <advance width="1327"></advance>
  <unicode hex="0077"></unicode>
  <outline>
    <contour>
      <point x="983" y="805" type="line"></point>
      <point x="1359" y="805" type="line"></point>
      <point x="1359" y="689" type="line"></point>
      <point x="1237" y="689" type="line"></point>
      <point x="1003" y="0" type="line"></point>
      <point x="861" y="0" type="line"></point>
      <point x="655" y="622" type="line"></point>
      <point x="444" y="0" type="line"></point>
      <point x="301" y="0" type="line"></point>
      <point x="63" y="689" type="line"></point>
      <point x="-39" y="689" type="line"></point>
      <point x="-39" y="805" type="line"></point>
      <point x="313" y="805" type="line"></point>
      <point x="313" y="689" type="line"></point>
      <point x="203" y="689" type="line"></point>
      <point x="370" y="157" type="line"></point>
      <point x="557" y="689" type="line"></point>
      <point x="452" y="689" type="line"></point>
      <point x="452" y="805" type="line"></point>
      <point x="850" y="805" type="line"></point>
      <point x="850" y="689" type="line"></point>
      <point x="745" y="689" type="line"></point>
      <point x="936" y="146" type="line"></point>
      <point x="1103" y="689" type="line"></point>
      <point x="983" y="689" type="line"></point>
    </contour>
  </outline>
</glyph>
<glyph name="x" format="1">
  <advance width="1016"></advance>
  <unicode hex="0078"></unicode>
  <outline>
    <contour>
      <point x="546" y="805" type="line"></point>
      <point x="926" y="805" type="line"></point>
      <point x="926" y="689" type="line"></point>
      <point x="793" y="689" type="line"></point>
      <point x="564" y="413" type="line"></point>
      <point x="822" y="116" type="line"></point>
      <point x="934" y="116" type="line"></point>
      <point x="934" y="0" type="line"></point>
      <point x="558" y="0" type="line"></point>
      <point x="558" y="116" type="line"></point>
      <point x="670" y="116" type="line"></point>
      <point x="485" y="329" type="line"></point>
      <point x="308" y="116" type="line"></point>
      <point x="414" y="116" type="line"></point>
      <point x="414" y="0" type="line"></point>
      <point x="36" y="0" type="line"></point>
      <point x="36" y="116" type="line"></point>
      <point x="155" y="116" type="line"></point>
      <point x="408" y="413" type="line"></point>
      <point x="171" y="689" type="line"></point>
      <point x="46" y="689" type="line"></point>
      <point x="46" y="805" type="line"></point>
      <point x="426" y="805" type="line"></point>
      <point x="426" y="689" type="line"></point>
      <point x="317" y="689" type="line"></point>
      <point x="485" y="494" type="line"></point>
      <point x="647" y="689" type="line"></point>
      <point x="546" y="689" type="line"></point>
    </contour>
  </outline>
</glyph>
<glyph name="y" format="1">
  <advance width="983"></advance>
  <unicode hex="0079"></unicode>
  <outline>
    <contour>
      <point x="573" y="805" type="line"></point>
      <point x="986" y="805" type="line"></point>
      <point x="986" y="689" type="line"></point>
      <point x="857" y="689" type="line"></point>
      <point x="629" y="36" type="line"></point>
      <point x="558" y="-179"></point>
      <point x="497" y="-320"></point>
      <point x="255" y="-320" type="curve" smooth="yes"></point>
      <point x="169" y="-320" type="line"></point>
      <point x="169" y="-202" type="line"></point>
      <point x="243" y="-202" type="line" smooth="yes"></point>
      <point x="375" y="-202"></point>
      <point x="419" y="-149"></point>
      <point x="459" y="-42" type="curve" smooth="yes"></point>
      <point x="491" y="43" type="line"></point>
      <point x="409" y="43" type="line"></point>
      <point x="133" y="689" type="line"></point>
      <point x="8" y="689" type="line"></point>
      <point x="8" y="805" type="line"></point>
      <point x="413" y="805" type="line"></point>
      <point x="413" y="689" type="line"></point>
      <point x="289" y="689" type="line"></point>
      <point x="513" y="143" type="line"></point>
      <point x="688" y="689" type="line"></point>
      <point x="573" y="689" type="line"></point>
    </contour>
  </outline>
</glyph>
<glyph name="z" format="1">
  <advance width="885"></advance>
  <unicode hex="007A"></unicode>
  <outline>
    <contour>
      <point x="121" y="805" type="line"></point>
      <point x="761" y="805" type="line"></point>
      <point x="761" y="683" type="line"></point>
      <point x="287" y="116" type="line"></point>
      <point x="658" y="116" type="line"></point>
      <point x="658" y="276" type="line"></point>
      <point x="786" y="276" type="line"></point>
      <point x="786" y="0" type="line"></point>
      <point x="107" y="0" type="line"></point>
      <point x="107" y="116" type="line"></point>
      <point x="579" y="689" type="line"></point>
      <point x="242" y="689" type="line"></point>
      <point x="242" y="537" type="line"></point>
      <point x="121" y="537" type="line"></point>
    </contour>
  </outline>
</glyph>
<glyph name="braceleft" format="1">
  <advance width="646"></advance>
  <unicode hex="007B"></unicode>
  <outline>
    <contour>
      <point x="509" y="1171" type="line"></point>
      <point x="583" y="1171" type="line"></point>
      <point x="583" y="1052" type="line"></point>
      <point x="426" y="1052"></point>
      <point x="418" y="1015"></point>
      <point x="418" y="868" type="curve" smooth="yes"></point>
      <point x="418" y="646"></point>
      <point x="416" y="544"></point>
      <point x="283" y="475" type="curve"></point>
      <point x="387" y="419"></point>
      <point x="417" y="325"></point>
      <point x="417" y="166" type="curve" smooth="yes"></point>
      <point x="417" y="87"></point>
      <point x="417" y="32"></point>
      <point x="419" y="2" type="curve" smooth="yes"></point>
      <point x="424" y="-96"></point>
      <point x="477" y="-103"></point>
      <point x="583" y="-103" type="curve"></point>
      <point x="583" y="-223" type="line"></point>
      <point x="510" y="-223" type="line"></point>
      <point x="507" y="-223" type="line" smooth="yes"></point>
      <point x="287" y="-223"></point>
      <point x="269" y="-79"></point>
      <point x="269" y="139" type="curve" smooth="yes"></point>
      <point x="269" y="298"></point>
      <point x="262" y="410"></point>
      <point x="125" y="410" type="curve" smooth="yes"></point>
      <point x="121" y="410" type="line"></point>
      <point x="121" y="539" type="line"></point>
      <point x="246" y="540"></point>
      <point x="269" y="637"></point>
      <point x="269" y="767" type="curve" smooth="yes"></point>
      <point x="269" y="845" type="line" smooth="yes"></point>
      <point x="269" y="1043"></point>
      <point x="304" y="1171"></point>
      <point x="505" y="1171" type="curve" smooth="yes"></point>
    </contour>
  </outline>
</glyph>
<glyph name="bar" format="1">
  <advance width="554"></advance>
  <unicode hex="007C"></unicode>
  <outline>
    <contour>
      <point x="197" y="1153" type="line"></point>
      <point x="319" y="1153" type="line"></point>
      <point x="319" y="-96" type="line"></point>
      <point x="197" y="-96" type="line"></point>
    </contour>
  </outline>
</glyph>
<glyph name="braceright" format="1">
  <advance width="835"></advance>
  <unicode hex="007D"></unicode>
  <outline>
    <contour>
      <point x="221" y="1171" type="line"></point>
      <point x="295" y="1171" type="line" smooth="yes"></point>
      <point x="515" y="1171"></point>
      <point x="535" y="1052"></point>
      <point x="535" y="806" type="curve" smooth="yes"></point>
      <point x="535" y="643"></point>
      <point x="546" y="539"></point>
      <point x="683" y="539" type="curve"></point>
      <point x="683" y="410" type="line"></point>
      <point x="555" y="410"></point>
      <point x="535" y="311"></point>
      <point x="535" y="177" type="curve" smooth="yes"></point>
      <point x="535" y="90" type="line" smooth="yes"></point>
      <point x="535" y="-102"></point>
      <point x="496" y="-223"></point>
      <point x="298" y="-223" type="curve" smooth="yes"></point>
      <point x="294" y="-223" type="line"></point>
      <point x="221" y="-223" type="line"></point>
      <point x="221" y="-103" type="line"></point>
      <point x="325" y="-103"></point>
      <point x="379" y="-97"></point>
      <point x="385" y="-2" type="curve" smooth="yes"></point>
      <point x="387" y="27"></point>
      <point x="387" y="67"></point>
      <point x="387" y="119" type="curve" smooth="yes"></point>
      <point x="387" y="314"></point>
      <point x="403" y="412"></point>
      <point x="521" y="475" type="curve"></point>
      <point x="404" y="536"></point>
      <point x="386" y="635"></point>
      <point x="386" y="812" type="curve" smooth="yes"></point>
      <point x="386" y="888" type="line" smooth="yes"></point>
      <point x="386" y="1015"></point>
      <point x="375" y="1052"></point>
      <point x="221" y="1052" type="curve"></point>
    </contour>
  </outline>
</glyph>
<glyph name="asciitilde" format="1">
  <advance width="1016"></advance>
  <unicode hex="007E"></unicode>
  <outline>
    <contour>
      <point x="64" y="573" type="line"></point>
      <point x="127" y="664"></point>
      <point x="203" y="709"></point>
      <point x="294" y="709" type="curve" smooth="yes"></point>
      <point x="473" y="709"></point>
      <point x="585" y="573"></point>
      <point x="762" y="573" type="curve" smooth="yes"></point>
      <point x="820" y="573"></point>
      <point x="870" y="599"></point>
      <point x="911" y="651" type="curve"></point>
      <point x="974" y="573" type="line"></point>
      <point x="920" y="485"></point>
      <point x="850" y="441"></point>
      <point x="765" y="441" type="curve" smooth="yes"></point>
      <point x="579" y="441"></point>
      <point x="467" y="578"></point>
      <point x="281" y="578" type="curve" smooth="yes"></point>
      <point x="217" y="578"></point>
      <point x="163" y="551"></point>
      <point x="119" y="496" type="curve"></point>
    </contour>
  </outline>
</glyph>
<glyph name="exclamdown" format="1">
  <advance width="540"></advance>
  <unicode hex="00A1"></unicode>
  <outline>
    <contour>
      <point x="231" y="847" type="line"></point>
      <point x="319" y="847" type="line"></point>
      <point x="361" y="350" type="line"></point>
      <point x="361" y="0" type="line"></point>
      <point x="189" y="0" type="line"></point>
      <point x="189" y="350" type="line"></point>
    </contour>
    <contour>
      <point x="169" y="1171" type="line"></point>
      <point x="381" y="1171" type="line"></point>
      <point x="381" y="959" type="line"></point>
      <point x="169" y="959" type="line"></point>
    </contour>
  </outline>
</glyph>
<glyph name="cent" format="1">
  <advance width="983"></advance>
  <unicode hex="00A2"></unicode>
  <outline>
    <contour>
      <point x="581" y="810" type="curve"></point>
      <point x="707" y="1171" type="line"></point>
      <point x="784" y="1153" type="line"></point>
      <point x="653" y="781" type="line"></point>
      <point x="690" y="760"></point>
      <point x="714" y="737"></point>
      <point x="727" y="713" type="curve"></point>
      <point x="723" y="805" type="line"></point>
      <point x="856" y="805" type="line"></point>
      <point x="856" y="517" type="line"></point>
      <point x="727" y="517" type="line"></point>
      <point x="710" y="593"></point>
      <point x="673" y="645"></point>
      <point x="615" y="672" type="curve"></point>
      <point x="421" y="118" type="line"></point>
      <point x="447" y="111"></point>
      <point x="475" y="107"></point>
      <point x="504" y="107" type="curve" smooth="yes"></point>
      <point x="625" y="107"></point>
      <point x="715" y="153"></point>
      <point x="776" y="246" type="curve"></point>
      <point x="865" y="157" type="line"></point>
      <point x="788" y="40"></point>
      <point x="666" y="-19"></point>
      <point x="500" y="-19" type="curve" smooth="yes"></point>
      <point x="459" y="-19"></point>
      <point x="418" y="-14"></point>
      <point x="378" y="-4" type="curve"></point>
      <point x="268" y="-320" type="line"></point>
      <point x="192" y="-303" type="line"></point>
      <point x="306" y="23" type="line"></point>
      <point x="181" y="85"></point>
      <point x="93" y="224"></point>
      <point x="93" y="400" type="curve" smooth="yes"></point>
      <point x="93" y="630"></point>
      <point x="250" y="820"></point>
      <point x="477" y="820" type="curve" smooth="yes"></point>
      <point x="521" y="820"></point>
      <point x="556" y="817"></point>
    </contour>
    <contour>
      <point x="539" y="692" type="line"></point>
      <point x="528" y="693"></point>
      <point x="518" y="694"></point>
      <point x="507" y="694" type="curve" smooth="yes"></point>
      <point x="328" y="694"></point>
      <point x="252" y="573"></point>
      <point x="252" y="384" type="curve" smooth="yes"></point>
      <point x="252" y="281"></point>
      <point x="285" y="205"></point>
      <point x="351" y="154" type="curve"></point>
    </contour>
  </outline>
</glyph>
<glyph name="sterling" format="1">
  <advance width="883"></advance>
  <unicode hex="00A3"></unicode>
  <outline>
    <contour>
      <point x="518" y="1171" type="curve" smooth="yes"></point>
      <point x="521" y="1171" type="line" smooth="yes"></point>
      <point x="717" y="1171"></point>
      <point x="833" y="1065"></point>
      <point x="836" y="863" type="curve"></point>
      <point x="701" y="863" type="line"></point>
      <point x="701" y="989"></point>
      <point x="643" y="1052"></point>
      <point x="528" y="1052" type="curve" smooth="yes"></point>
      <point x="410" y="1052"></point>
      <point x="320" y="996"></point>
      <point x="320" y="886" type="curve" smooth="yes"></point>
      <point x="320" y="781"></point>
      <point x="361" y="717"></point>
      <point x="399" y="645" type="curve"></point>
      <point x="767" y="645" type="line"></point>
      <point x="767" y="529" type="line"></point>
      <point x="454" y="529" type="line"></point>
      <point x="477" y="473"></point>
      <point x="488" y="419"></point>
      <point x="488" y="366" type="curve" smooth="yes"></point>
      <point x="488" y="313"></point>
      <point x="475" y="260"></point>
      <point x="448" y="207" type="curve"></point>
      <point x="501" y="175"></point>
      <point x="590" y="122"></point>
      <point x="639" y="122" type="curve" smooth="yes"></point>
      <point x="761" y="122"></point>
      <point x="782" y="176"></point>
      <point x="790" y="290" type="curve"></point>
      <point x="883" y="290" type="line"></point>
      <point x="883" y="94"></point>
      <point x="839" y="-18"></point>
      <point x="650" y="-18" type="curve" smooth="yes"></point>
      <point x="557" y="-18"></point>
      <point x="464" y="46"></point>
      <point x="393" y="98" type="curve"></point>
      <point x="342" y="21"></point>
      <point x="281" y="-18"></point>
      <point x="210" y="-18" type="curve" smooth="yes"></point>
      <point x="88" y="-18"></point>
      <point x="0" y="40"></point>
      <point x="0" y="151" type="curve" smooth="yes"></point>
      <point x="0" y="253"></point>
      <point x="88" y="338"></point>
      <point x="195" y="338" type="curve" smooth="yes"></point>
      <point x="253" y="338"></point>
      <point x="310" y="312"></point>
      <point x="365" y="261" type="curve"></point>
      <point x="370" y="279"></point>
      <point x="372" y="298"></point>
      <point x="372" y="319" type="curve" smooth="yes"></point>
      <point x="372" y="376"></point>
      <point x="347" y="446"></point>
      <point x="298" y="529" type="curve"></point>
      <point x="81" y="529" type="line"></point>
      <point x="81" y="645" type="line"></point>
      <point x="236" y="645" type="line"></point>
      <point x="197" y="726"></point>
      <point x="178" y="794"></point>
      <point x="178" y="850" type="curve" smooth="yes"></point>
      <point x="178" y="1057"></point>
      <point x="311" y="1171"></point>
    </contour>
    <contour>
      <point x="322" y="163" type="curve"></point>
      <point x="261" y="213"></point>
      <point x="214" y="241"></point>
      <point x="183" y="247" type="curve"></point>
      <point x="136" y="247"></point>
      <point x="107" y="202"></point>
      <point x="107" y="154" type="curve" smooth="yes"></point>
      <point x="107" y="100"></point>
      <point x="138" y="65"></point>
      <point x="198" y="65" type="curve" smooth="yes"></point>
      <point x="203" y="65" type="line" smooth="yes"></point>
      <point x="243" y="65"></point>
      <point x="283" y="98"></point>
    </contour>
  </outline>
</glyph>
<glyph name="currency" format="1">
  <advance width="687"></advance>
  <unicode hex="00A4"></unicode>
  <outline>
    <contour>
      <point x="530" y="1069" type="curve"></point>
      <point x="618" y="1157" type="line"></point>
      <point x="687" y="1088" type="line"></point>
      <point x="604" y="1005" type="line"></point>
      <point x="652" y="948"></point>
      <point x="676" y="882"></point>
      <point x="676" y="806" type="curve" smooth="yes"></point>
      <point x="676" y="730"></point>
      <point x="651" y="662"></point>
      <point x="602" y="603" type="curve"></point>
      <point x="687" y="519" type="line"></point>
      <point x="618" y="451" type="line"></point>
      <point x="528" y="539" type="line"></point>
      <point x="475" y="504"></point>
      <point x="413" y="486"></point>
      <point x="343" y="486" type="curve" smooth="yes"></point>
      <point x="273" y="486"></point>
      <point x="211" y="503"></point>
      <point x="157" y="538" type="curve"></point>
      <point x="69" y="451" type="line"></point>
      <point x="0" y="519" type="line"></point>
      <point x="82" y="601" type="line"></point>
      <point x="32" y="661"></point>
      <point x="7" y="730"></point>
      <point x="7" y="808" type="curve" smooth="yes"></point>
      <point x="7" y="886"></point>
      <point x="31" y="952"></point>
      <point x="80" y="1007" type="curve"></point>
      <point x="0" y="1088" type="line"></point>
      <point x="69" y="1157" type="line"></point>
      <point x="155" y="1071" type="line"></point>
      <point x="212" y="1106"></point>
      <point x="274" y="1124"></point>
      <point x="342" y="1124" type="curve" smooth="yes"></point>
      <point x="411" y="1124"></point>
      <point x="473" y="1106"></point>
    </contour>
    <contour>
      <point x="536" y="802" type="curve" smooth="yes"></point>
      <point x="536" y="915"></point>
      <point x="467" y="1006"></point>
      <point x="342" y="1006" type="curve" smooth="yes"></point>
      <point x="222" y="1006"></point>
      <point x="148" y="917"></point>
      <point x="148" y="802" type="curve" smooth="yes"></point>
      <point x="148" y="689"></point>
      <point x="227" y="600"></point>
      <point x="343" y="600" type="curve" smooth="yes"></point>
      <point x="460" y="600"></point>
      <point x="536" y="689"></point>
    </contour>
  </outline>
</glyph>
<glyph name="yen" format="1">
  <advance width="983"></advance>
  <unicode hex="00A5"></unicode>
  <outline>
    <contour>
      <point x="607" y="1153" type="line"></point>
      <point x="1067" y="1153" type="line"></point>
      <point x="1067" y="1037" type="line"></point>
      <point x="911" y="1037" type="line"></point>
      <point x="630" y="622" type="line"></point>
      <point x="807" y="622" type="line"></point>
      <point x="807" y="503" type="line"></point>
      <point x="568" y="503" type="line"></point>
      <point x="568" y="414" type="line"></point>
      <point x="807" y="414" type="line"></point>
      <point x="807" y="297" type="line"></point>
      <point x="568" y="297" type="line"></point>
      <point x="568" y="116" type="line"></point>
      <point x="732" y="116" type="line"></point>
      <point x="732" y="0" type="line"></point>
      <point x="249" y="0" type="line"></point>
      <point x="249" y="116" type="line"></point>
      <point x="408" y="116" type="line"></point>
      <point x="408" y="297" type="line"></point>
      <point x="171" y="297" type="line"></point>
      <point x="171" y="414" type="line"></point>
      <point x="408" y="414" type="line"></point>
      <point x="408" y="503" type="line"></point>
      <point x="171" y="503" type="line"></point>
      <point x="171" y="622" type="line"></point>
      <point x="343" y="622" type="line"></point>
      <point x="50" y="1037" type="line"></point>
      <point x="-95" y="1037" type="line"></point>
      <point x="-95" y="1153" type="line"></point>
      <point x="376" y="1153" type="line"></point>
      <point x="376" y="1037" type="line"></point>
      <point x="226" y="1037" type="line"></point>
      <point x="500" y="648" type="line"></point>
      <point x="757" y="1037" type="line"></point>
      <point x="607" y="1037" type="line"></point>
    </contour>
  </outline>
</glyph>
<glyph name="brokenbar" format="1">
  <advance width="540"></advance>
  <unicode hex="00A6"></unicode>
  <outline>
    <contour>
      <point x="202" y="1153" type="line"></point>
      <point x="324" y="1153" type="line"></point>
      <point x="324" y="689" type="line"></point>
      <point x="202" y="689" type="line"></point>
    </contour>
    <contour>
      <point x="202" y="446" type="line"></point>
      <point x="324" y="446" type="line"></point>
      <point x="324" y="-18" type="line"></point>
      <point x="202" y="-18" type="line"></point>
    </contour>
  </outline>
</glyph>
<glyph name="section" format="1">
  <advance width="934"></advance>
  <unicode hex="00A7"></unicode>
  <outline>
    <contour>
      <point x="458" y="1171" type="curve" smooth="yes"></point>
      <point x="460" y="1171" type="line" smooth="yes"></point>
      <point x="620" y="1171"></point>
      <point x="740" y="1100"></point>
      <point x="780" y="969" type="curve"></point>
      <point x="655" y="924" type="line"></point>
      <point x="630" y="1010"></point>
      <point x="571" y="1054"></point>
      <point x="476" y="1054" type="curve" smooth="yes"></point>
      <point x="368" y="1054"></point>
      <point x="267" y="1012"></point>
      <point x="267" y="913" type="curve" smooth="yes"></point>
      <point x="267" y="781"></point>
      <point x="445" y="736"></point>
      <point x="544" y="698" type="curve" smooth="yes"></point>
      <point x="689" y="641"></point>
      <point x="819" y="583"></point>
      <point x="819" y="419" type="curve" smooth="yes"></point>
      <point x="819" y="322"></point>
      <point x="766" y="240"></point>
      <point x="660" y="173" type="curve"></point>
      <point x="747" y="122"></point>
      <point x="791" y="52"></point>
      <point x="791" y="-35" type="curve" smooth="yes"></point>
      <point x="791" y="-204"></point>
      <point x="658" y="-320"></point>
      <point x="491" y="-320" type="curve" smooth="yes"></point>
      <point x="345" y="-320"></point>
      <point x="238" y="-267"></point>
      <point x="170" y="-160" type="curve"></point>
      <point x="272" y="-77" type="line"></point>
      <point x="313" y="-157"></point>
      <point x="382" y="-197"></point>
      <point x="478" y="-197" type="curve"></point>
      <point x="563" y="-196"></point>
      <point x="650" y="-147"></point>
      <point x="650" y="-67" type="curve" smooth="yes"></point>
      <point x="650" y="42"></point>
      <point x="557" y="78"></point>
      <point x="476" y="110" type="curve" smooth="yes"></point>
      <point x="286" y="183"></point>
      <point x="98" y="241"></point>
      <point x="98" y="431" type="curve" smooth="yes"></point>
      <point x="98" y="552"></point>
      <point x="171" y="616"></point>
      <point x="258" y="674" type="curve"></point>
      <point x="171" y="726"></point>
      <point x="128" y="801"></point>
      <point x="128" y="899" type="curve" smooth="yes"></point>
      <point x="128" y="1063"></point>
      <point x="286" y="1171"></point>
    </contour>
    <contour>
      <point x="582" y="526" type="curve" smooth="yes"></point>
      <point x="508" y="562"></point>
      <point x="418" y="588"></point>
      <point x="341" y="626" type="curve"></point>
      <point x="275" y="587"></point>
      <point x="223" y="549"></point>
      <point x="223" y="462" type="curve" smooth="yes"></point>
      <point x="223" y="387"></point>
      <point x="276" y="351"></point>
      <point x="331" y="324" type="curve" smooth="yes"></point>
      <point x="405" y="287"></point>
      <point x="492" y="259"></point>
      <point x="570" y="220" type="curve"></point>
      <point x="653" y="263"></point>
      <point x="695" y="319"></point>
      <point x="695" y="388" type="curve" smooth="yes"></point>
      <point x="695" y="465"></point>
      <point x="638" y="499"></point>
    </contour>
  </outline>
</glyph>
<glyph name="dieresis" format="1">
  <advance width="786"></advance>
  <unicode hex="00A8"></unicode>
  <outline>
    <contour>
      <point x="221" y="1101" type="line"></point>
      <point x="375" y="1101" type="line"></point>
      <point x="375" y="948" type="line"></point>
      <point x="221" y="948" type="line"></point>
    </contour>
    <contour>
      <point x="534" y="1101" type="line"></point>
      <point x="686" y="1101" type="line"></point>
      <point x="686" y="948" type="line"></point>
      <point x="534" y="948" type="line"></point>
    </contour>
  </outline>
</glyph>
<glyph name="copyright" format="1">
  <advance width="1200"></advance>
  <unicode hex="00A9"></unicode>
  <outline>
    <contour>
      <point x="0" y="575" type="curve" smooth="yes"></point>
      <point x="0" y="917"></point>
      <point x="244" y="1171"></point>
      <point x="600" y="1171" type="curve" smooth="yes"></point>
      <point x="956" y="1171"></point>
      <point x="1200" y="917"></point>
      <point x="1200" y="575" type="curve" smooth="yes"></point>
      <point x="1200" y="233"></point>
      <point x="955" y="-18"></point>
      <point x="600" y="-18" type="curve" smooth="yes"></point>
      <point x="245" y="-18"></point>
      <point x="0" y="233"></point>
    </contour>
    <contour>
      <point x="301" y="586" type="curve" smooth="yes"></point>
      <point x="301" y="745"></point>
      <point x="423" y="882"></point>
      <point x="578" y="882" type="curve" smooth="yes"></point>
      <point x="658" y="882"></point>
      <point x="736" y="860"></point>
      <point x="759" y="806" type="curve"></point>
      <point x="757" y="872" type="line"></point>
      <point x="853" y="872" type="line"></point>
      <point x="853" y="664" type="line"></point>
      <point x="759" y="664" type="line"></point>
      <point x="739" y="749"></point>
      <point x="686" y="792"></point>
      <point x="600" y="792" type="curve" smooth="yes"></point>
      <point x="474" y="792"></point>
      <point x="416" y="708"></point>
      <point x="416" y="580" type="curve" smooth="yes"></point>
      <point x="416" y="457"></point>
      <point x="474" y="368"></point>
      <point x="598" y="368" type="curve" smooth="yes"></point>
      <point x="687" y="368"></point>
      <point x="753" y="402"></point>
      <point x="795" y="469" type="curve"></point>
      <point x="859" y="404" type="line"></point>
      <point x="806" y="319"></point>
      <point x="718" y="277"></point>
      <point x="595" y="277" type="curve" smooth="yes"></point>
      <point x="590" y="277" type="line" smooth="yes"></point>
      <point x="408" y="277"></point>
      <point x="301" y="411"></point>
    </contour>
    <contour>
      <point x="1083" y="575" type="curve"></point>
      <point x="1081" y="857"></point>
      <point x="892" y="1077"></point>
      <point x="599" y="1077" type="curve" smooth="yes"></point>
      <point x="307" y="1077"></point>
      <point x="116" y="858"></point>
      <point x="116" y="575" type="curve" smooth="yes"></point>
      <point x="116" y="294"></point>
      <point x="308" y="74"></point>
      <point x="598" y="74" type="curve" smooth="yes"></point>
      <point x="890" y="74"></point>
      <point x="1081" y="294"></point>
    </contour>
  </outline>
</glyph>
<glyph name="ordfeminine" format="1">
  <advance width="835"></advance>
  <unicode hex="00AA"></unicode>
  <outline>
    <contour>
      <point x="172" y="1087" type="line"></point>
      <point x="228" y="1143"></point>
      <point x="303" y="1172"></point>
      <point x="398" y="1172" type="curve" smooth="yes"></point>
      <point x="559" y="1172"></point>
      <point x="654" y="1114"></point>
      <point x="654" y="971" type="curve" smooth="yes"></point>
      <point x="654" y="640" type="line"></point>
      <point x="762" y="640" type="line"></point>
      <point x="762" y="555" type="line"></point>
      <point x="554" y="555" type="line"></point>
      <point x="553" y="617" type="line"></point>
      <point x="480" y="566"></point>
      <point x="411" y="540"></point>
      <point x="346" y="540" type="curve" smooth="yes"></point>
      <point x="344" y="540" type="line" smooth="yes"></point>
      <point x="233" y="540"></point>
      <point x="136" y="608"></point>
      <point x="136" y="709" type="curve" smooth="yes"></point>
      <point x="136" y="854"></point>
      <point x="233" y="908"></point>
      <point x="371" y="908" type="curve" smooth="yes"></point>
      <point x="435" y="908"></point>
      <point x="492" y="903"></point>
      <point x="542" y="893" type="curve"></point>
      <point x="542" y="966" type="line" smooth="yes"></point>
      <point x="542" y="1043"></point>
      <point x="495" y="1082"></point>
      <point x="402" y="1082" type="curve" smooth="yes"></point>
      <point x="329" y="1082"></point>
      <point x="276" y="1059"></point>
      <point x="241" y="1014" type="curve"></point>
    </contour>
    <contour>
      <point x="542" y="820" type="line"></point>
      <point x="502" y="820"></point>
      <point x="452" y="832"></point>
      <point x="405" y="832" type="curve" smooth="yes"></point>
      <point x="296" y="832"></point>
      <point x="242" y="794"></point>
      <point x="242" y="717" type="curve" smooth="yes"></point>
      <point x="242" y="657"></point>
      <point x="291" y="622"></point>
      <point x="357" y="622" type="curve" smooth="yes"></point>
      <point x="432" y="622"></point>
      <point x="493" y="644"></point>
      <point x="542" y="689" type="curve"></point>
    </contour>
  </outline>
</glyph>
<glyph name="guillemotleft" format="1">
  <advance width="885"></advance>
  <unicode hex="00AB"></unicode>
  <outline>
    <contour>
      <point x="744" y="942" type="line"></point>
      <point x="847" y="942" type="line"></point>
      <point x="640" y="553" type="line"></point>
      <point x="847" y="164" type="line"></point>
      <point x="744" y="164" type="line"></point>
      <point x="431" y="520" type="line"></point>
      <point x="431" y="586" type="line"></point>
    </contour>
    <contour>
      <point x="373" y="942" type="line"></point>
      <point x="476" y="942" type="line"></point>
      <point x="269" y="553" type="line"></point>
      <point x="476" y="164" type="line"></point>
      <point x="373" y="164" type="line"></point>
      <point x="60" y="520" type="line"></point>
      <point x="60" y="586" type="line"></point>
    </contour>
  </outline>
</glyph>
<glyph name="logicalnot" format="1">
  <advance width="937"></advance>
  <unicode hex="00AC"></unicode>
  <outline>
    <contour>
      <point x="0" y="842" type="line"></point>
      <point x="937" y="842" type="line"></point>
      <point x="937" y="304" type="line"></point>
      <point x="820" y="304" type="line"></point>
      <point x="820" y="724" type="line"></point>
      <point x="0" y="724" type="line"></point>
    </contour>
  </outline>
</glyph>
<glyph name="registered" format="1">
  <advance width="1200"></advance>
  <unicode hex="00AE"></unicode>
  <outline>
    <contour>
      <point x="0" y="575" type="curve" smooth="yes"></point>
      <point x="0" y="917"></point>
      <point x="244" y="1171"></point>
      <point x="600" y="1171" type="curve" smooth="yes"></point>
      <point x="956" y="1171"></point>
      <point x="1200" y="917"></point>
      <point x="1200" y="575" type="curve" smooth="yes"></point>
      <point x="1200" y="233"></point>
      <point x="955" y="-18"></point>
      <point x="600" y="-18" type="curve" smooth="yes"></point>
      <point x="245" y="-18"></point>
      <point x="0" y="233"></point>
    </contour>
    <contour>
      <point x="1083" y="575" type="curve"></point>
      <point x="1081" y="857"></point>
      <point x="892" y="1077"></point>
      <point x="599" y="1077" type="curve" smooth="yes"></point>
      <point x="307" y="1077"></point>
      <point x="116" y="858"></point>
      <point x="116" y="575" type="curve" smooth="yes"></point>
      <point x="116" y="294"></point>
      <point x="308" y="74"></point>
      <point x="598" y="74" type="curve" smooth="yes"></point>
      <point x="890" y="74"></point>
      <point x="1081" y="294"></point>
    </contour>
    <contour>
      <point x="325" y="895" type="line"></point>
      <point x="624" y="895" type="line" smooth="yes"></point>
      <point x="748" y="895"></point>
      <point x="830" y="846"></point>
      <point x="830" y="733" type="curve" smooth="yes"></point>
      <point x="830" y="644"></point>
      <point x="783" y="591"></point>
      <point x="690" y="572" type="curve"></point>
      <point x="817" y="337" type="line"></point>
      <point x="896" y="337" type="line"></point>
      <point x="896" y="269" type="line"></point>
      <point x="759" y="269" type="line"></point>
      <point x="605" y="561" type="line"></point>
      <point x="500" y="561" type="line"></point>
      <point x="500" y="337" type="line"></point>
      <point x="585" y="337" type="line"></point>
      <point x="585" y="269" type="line"></point>
      <point x="325" y="269" type="line"></point>
      <point x="325" y="337" type="line"></point>
      <point x="413" y="337" type="line"></point>
      <point x="413" y="826" type="line"></point>
      <point x="325" y="826" type="line"></point>
    </contour>
    <contour>
      <point x="741" y="733" type="line" smooth="yes"></point>
      <point x="741" y="795"></point>
      <point x="700" y="826"></point>
      <point x="617" y="826" type="curve" smooth="yes"></point>
      <point x="500" y="826" type="line"></point>
      <point x="500" y="631" type="line"></point>
      <point x="621" y="631" type="line" smooth="yes"></point>
      <point x="693" y="631"></point>
      <point x="741" y="660"></point>
      <point x="741" y="725" type="curve" smooth="yes"></point>
    </contour>
  </outline>
</glyph>
<glyph name="macron" format="1">
  <advance width="688"></advance>
  <unicode hex="00AF"></unicode>
  <outline>
    <contour>
      <point x="221" y="1171" type="line"></point>
      <point x="597" y="1171" type="line"></point>
      <point x="597" y="1063" type="line"></point>
      <point x="221" y="1063" type="line"></point>
    </contour>
  </outline>
</glyph>
<glyph name="degree" format="1">
  <advance width="737"></advance>
  <unicode hex="00B0"></unicode>
  <outline>
    <contour>
      <point x="107" y="922" type="curve" smooth="yes"></point>
      <point x="107" y="1060"></point>
      <point x="226" y="1171"></point>
      <point x="366" y="1171" type="curve" smooth="yes"></point>
      <point x="506" y="1171"></point>
      <point x="624" y="1061"></point>
      <point x="624" y="922" type="curve" smooth="yes"></point>
      <point x="624" y="784"></point>
      <point x="505" y="672"></point>
      <point x="366" y="673" type="curve"></point>
      <point x="226" y="673"></point>
      <point x="107" y="784"></point>
    </contour>
    <contour>
      <point x="527" y="921" type="curve" smooth="yes"></point>
      <point x="527" y="1010"></point>
      <point x="459" y="1085"></point>
      <point x="368" y="1085" type="curve" smooth="yes"></point>
      <point x="276" y="1085"></point>
      <point x="203" y="1014"></point>
      <point x="204" y="923" type="curve" smooth="yes"></point>
      <point x="204" y="837"></point>
      <point x="264" y="762"></point>
      <point x="365" y="762" type="curve" smooth="yes"></point>
      <point x="453" y="762"></point>
      <point x="527" y="833"></point>
    </contour>
  </outline>
</glyph>
<glyph name="plusminus" format="1">
  <advance width="879"></advance>
  <unicode hex="00B1"></unicode>
  <outline>
    <contour>
      <point x="377" y="1171" type="line"></point>
      <point x="500" y="1171" type="line"></point>
      <point x="500" y="793" type="line"></point>
      <point x="879" y="793" type="line"></point>
      <point x="879" y="672" type="line"></point>
      <point x="500" y="672" type="line"></point>
      <point x="500" y="293" type="line"></point>
      <point x="377" y="293" type="line"></point>
      <point x="377" y="672" type="line"></point>
      <point x="0" y="672" type="line"></point>
      <point x="0" y="793" type="line"></point>
      <point x="377" y="793" type="line"></point>
    </contour>
    <contour>
      <point x="0" y="121" type="line"></point>
      <point x="879" y="121" type="line"></point>
      <point x="879" y="0" type="line"></point>
      <point x="0" y="0" type="line"></point>
    </contour>
  </outline>
</glyph>
<glyph name="uni00B2" format="1">
  <advance width="570"></advance>
  <unicode hex="00B2"></unicode>
  <outline>
    <contour>
      <point x="22" y="854" type="line"></point>
      <point x="22" y="1065"></point>
      <point x="110" y="1171"></point>
      <point x="287" y="1171" type="curve" smooth="yes"></point>
      <point x="453" y="1171"></point>
      <point x="570" y="1088"></point>
      <point x="570" y="939" type="curve" smooth="yes"></point>
      <point x="570" y="682"></point>
      <point x="166" y="617"></point>
      <point x="121" y="401" type="curve"></point>
      <point x="472" y="401" type="line"></point>
      <point x="472" y="581" type="line"></point>
      <point x="566" y="581" type="line"></point>
      <point x="566" y="300" type="line"></point>
      <point x="0" y="300" type="line"></point>
      <point x="0" y="436"></point>
      <point x="57" y="551"></point>
      <point x="171" y="644" type="curve" smooth="yes"></point>
      <point x="268" y="723"></point>
      <point x="446" y="800"></point>
      <point x="446" y="936" type="curve" smooth="yes"></point>
      <point x="446" y="1025"></point>
      <point x="393" y="1070"></point>
      <point x="288" y="1070" type="curve" smooth="yes"></point>
      <point x="158" y="1070"></point>
      <point x="129" y="994"></point>
      <point x="129" y="854" type="curve"></point>
    </contour>
  </outline>
</glyph>
<glyph name="uni00B3" format="1">
  <advance width="611"></advance>
  <unicode hex="00B3"></unicode>
  <outline>
    <contour>
      <point x="21" y="941" type="line"></point>
      <point x="26" y="1082"></point>
      <point x="133" y="1171"></point>
      <point x="282" y="1171" type="curve" smooth="yes"></point>
      <point x="454" y="1170"></point>
      <point x="577" y="1104"></point>
      <point x="577" y="941" type="curve" smooth="yes"></point>
      <point x="577" y="838"></point>
      <point x="527" y="772"></point>
      <point x="426" y="743" type="curve"></point>
      <point x="525" y="725"></point>
      <point x="611" y="657"></point>
      <point x="611" y="550" type="curve" smooth="yes"></point>
      <point x="611" y="370"></point>
      <point x="473" y="283"></point>
      <point x="285" y="283" type="curve" smooth="yes"></point>
      <point x="282" y="283" type="line" smooth="yes"></point>
      <point x="114" y="283"></point>
      <point x="0" y="372"></point>
      <point x="0" y="547" type="curve" smooth="yes"></point>
      <point x="0" y="557" type="line"></point>
      <point x="110" y="557" type="line"></point>
      <point x="119" y="461"></point>
      <point x="179" y="383"></point>
      <point x="277" y="383" type="curve" smooth="yes"></point>
      <point x="391" y="383"></point>
      <point x="491" y="424"></point>
      <point x="491" y="520" type="curve" smooth="yes"></point>
      <point x="491" y="664"></point>
      <point x="414" y="693"></point>
      <point x="217" y="693" type="curve"></point>
      <point x="217" y="792" type="line"></point>
      <point x="385" y="792"></point>
      <point x="462" y="814"></point>
      <point x="462" y="926" type="curve" smooth="yes"></point>
      <point x="462" y="1023"></point>
      <point x="390" y="1068"></point>
      <point x="288" y="1068" type="curve" smooth="yes"></point>
      <point x="187" y="1068"></point>
      <point x="138" y="1013"></point>
      <point x="132" y="921" type="curve"></point>
    </contour>
  </outline>
</glyph>
<glyph name="paragraph" format="1">
  <advance width="1032"></advance>
  <unicode hex="00B6"></unicode>
  <outline>
    <contour>
      <point x="442" y="1171" type="curve" smooth="yes"></point>
      <point x="1011" y="1171" type="line"></point>
      <point x="1011" y="1037" type="line"></point>
      <point x="873" y="1037" type="line"></point>
      <point x="873" y="-320" type="line"></point>
      <point x="738" y="-320" type="line"></point>
      <point x="738" y="1037" type="line"></point>
      <point x="537" y="1037" type="line"></point>
      <point x="537" y="-320" type="line"></point>
      <point x="402" y="-320" type="line"></point>
      <point x="402" y="453" type="line"></point>
      <point x="189" y="459"></point>
      <point x="41" y="599"></point>
      <point x="41" y="812" type="curve" smooth="yes"></point>
      <point x="41" y="1036"></point>
      <point x="205" y="1171"></point>
    </contour>
  </outline>
</glyph>
<glyph name="cedilla" format="1">
  <advance width="639"></advance>
  <unicode hex="00B8"></unicode>
  <outline>
    <contour>
      <point x="362" y="5" type="line"></point>
      <point x="434" y="5" type="line"></point>
      <point x="407" y="-119" type="line"></point>
      <point x="492" y="-129"></point>
      <point x="535" y="-162"></point>
      <point x="535" y="-218" type="curve" smooth="yes"></point>
      <point x="535" y="-312"></point>
      <point x="442" y="-363"></point>
      <point x="323" y="-363" type="curve" smooth="yes"></point>
      <point x="285" y="-363"></point>
      <point x="251" y="-360"></point>
      <point x="221" y="-355" type="curve"></point>
      <point x="221" y="-263" type="line"></point>
      <point x="252" y="-268"></point>
      <point x="280" y="-271"></point>
      <point x="307" y="-271" type="curve" smooth="yes"></point>
      <point x="370" y="-271"></point>
      <point x="402" y="-254"></point>
      <point x="402" y="-220" type="curve" smooth="yes"></point>
      <point x="402" y="-186"></point>
      <point x="369" y="-166"></point>
      <point x="304" y="-160" type="curve"></point>
    </contour>
  </outline>
</glyph>
<glyph name="uni00B9" format="1">
  <advance width="354"></advance>
  <unicode hex="00B9"></unicode>
  <outline>
    <contour>
      <point x="0" y="1153" type="line"></point>
      <point x="240" y="1153" type="line"></point>
      <point x="240" y="392" type="line"></point>
      <point x="354" y="392" type="line"></point>
      <point x="354" y="299" type="line"></point>
      <point x="6" y="299" type="line"></point>
      <point x="6" y="392" type="line"></point>
      <point x="129" y="392" type="line"></point>
      <point x="129" y="1059" type="line"></point>
      <point x="0" y="1059" type="line"></point>
    </contour>
  </outline>
</glyph>
<glyph name="ordmasculine" format="1">
  <advance width="569"></advance>
  <unicode hex="00BA"></unicode>
  <outline>
    <contour>
      <point x="0" y="907" type="curve" smooth="yes"></point>
      <point x="0" y="1063"></point>
      <point x="129" y="1170"></point>
      <point x="285" y="1171" type="curve"></point>
      <point x="442" y="1171"></point>
      <point x="569" y="1062"></point>
      <point x="569" y="907" type="curve" smooth="yes"></point>
      <point x="569" y="753"></point>
      <point x="442" y="643"></point>
      <point x="285" y="643" type="curve" smooth="yes"></point>
      <point x="283" y="643" type="line" smooth="yes"></point>
      <point x="128" y="643"></point>
      <point x="0" y="754"></point>
    </contour>
    <contour>
      <point x="456" y="907" type="curve" smooth="yes"></point>
      <point x="456" y="1003"></point>
      <point x="380" y="1074"></point>
      <point x="284" y="1074" type="curve" smooth="yes"></point>
      <point x="187" y="1074"></point>
      <point x="112" y="1003"></point>
      <point x="112" y="907" type="curve" smooth="yes"></point>
      <point x="112" y="810"></point>
      <point x="188" y="738"></point>
      <point x="285" y="738" type="curve" smooth="yes"></point>
      <point x="381" y="738"></point>
      <point x="456" y="810"></point>
    </contour>
  </outline>
</glyph>
<glyph name="guillemotright" format="1">
  <advance width="885"></advance>
  <unicode hex="00BB"></unicode>
  <outline>
    <contour>
      <point x="421" y="942" type="line"></point>
      <point x="523" y="942" type="line"></point>
      <point x="837" y="586" type="line"></point>
      <point x="837" y="520" type="line"></point>
      <point x="523" y="164" type="line"></point>
      <point x="421" y="164" type="line"></point>
      <point x="628" y="553" type="line"></point>
    </contour>
    <contour>
      <point x="50" y="942" type="line"></point>
      <point x="153" y="942" type="line"></point>
      <point x="466" y="586" type="line"></point>
      <point x="466" y="520" type="line"></point>
      <point x="153" y="164" type="line"></point>
      <point x="50" y="164" type="line"></point>
      <point x="257" y="553" type="line"></point>
    </contour>
  </outline>
</glyph>
<glyph name="onequarter" format="1">
  <advance width="1573"></advance>
  <unicode hex="00BC"></unicode>
  <outline>
    <contour>
      <point x="1295" y="931" type="line"></point>
      <point x="1407" y="931" type="line"></point>
      <point x="1407" y="352" type="line"></point>
      <point x="1560" y="352" type="line"></point>
      <point x="1560" y="254" type="line"></point>
      <point x="1407" y="254" type="line"></point>
      <point x="1407" y="94" type="line"></point>
      <point x="1527" y="94" type="line"></point>
      <point x="1527" y="0" type="line"></point>
      <point x="1160" y="0" type="line"></point>
      <point x="1160" y="94" type="line"></point>
      <point x="1292" y="94" type="line"></point>
      <point x="1292" y="254" type="line"></point>
      <point x="921" y="254" type="line"></point>
      <point x="921" y="352" type="line"></point>
    </contour>
    <contour>
      <point x="36" y="1153" type="line"></point>
      <point x="276" y="1153" type="line"></point>
      <point x="276" y="392" type="line"></point>
      <point x="390" y="392" type="line"></point>
      <point x="390" y="299" type="line"></point>
      <point x="42" y="299" type="line"></point>
      <point x="42" y="392" type="line"></point>
      <point x="165" y="392" type="line"></point>
      <point x="165" y="1059" type="line"></point>
      <point x="36" y="1059" type="line"></point>
    </contour>
    <contour>
      <point x="894" y="1170" type="line"></point>
      <point x="983" y="1170" type="line"></point>
      <point x="569" y="0" type="line"></point>
      <point x="479" y="0" type="line"></point>
    </contour>
    <contour>
      <point x="1292" y="352" type="line"></point>
      <point x="1292" y="765" type="line"></point>
      <point x="1038" y="352" type="line"></point>
    </contour>
  </outline>
</glyph>
<glyph name="onehalf" format="1">
  <advance width="1622"></advance>
  <unicode hex="00BD"></unicode>
  <outline>
    <contour>
      <point x="894" y="1170" type="line"></point>
      <point x="983" y="1170" type="line"></point>
      <point x="569" y="0" type="line"></point>
      <point x="479" y="0" type="line"></point>
    </contour>
    <contour>
      <point x="36" y="1153" type="line"></point>
      <point x="276" y="1153" type="line"></point>
      <point x="276" y="392" type="line"></point>
      <point x="390" y="392" type="line"></point>
      <point x="390" y="299" type="line"></point>
      <point x="42" y="299" type="line"></point>
      <point x="42" y="392" type="line"></point>
      <point x="165" y="392" type="line"></point>
      <point x="165" y="1059" type="line"></point>
      <point x="36" y="1059" type="line"></point>
    </contour>
    <contour>
      <point x="1021" y="539" type="line"></point>
      <point x="1021" y="750"></point>
      <point x="1109" y="856"></point>
      <point x="1286" y="856" type="curve" smooth="yes"></point>
      <point x="1452" y="856"></point>
      <point x="1569" y="773"></point>
      <point x="1569" y="624" type="curve" smooth="yes"></point>
      <point x="1569" y="368"></point>
      <point x="1169" y="302"></point>
      <point x="1120" y="86" type="curve"></point>
      <point x="1471" y="86" type="line"></point>
      <point x="1471" y="266" type="line"></point>
      <point x="1565" y="266" type="line"></point>
      <point x="1565" y="-15" type="line"></point>
      <point x="999" y="-15" type="line"></point>
      <point x="999" y="120"></point>
      <point x="1056" y="235"></point>
      <point x="1170" y="328" type="curve" smooth="yes"></point>
      <point x="1270" y="410"></point>
      <point x="1445" y="489"></point>
      <point x="1445" y="621" type="curve" smooth="yes"></point>
      <point x="1445" y="710"></point>
      <point x="1392" y="755"></point>
      <point x="1287" y="755" type="curve" smooth="yes"></point>
      <point x="1158" y="754"></point>
      <point x="1128" y="679"></point>
      <point x="1128" y="539" type="curve"></point>
    </contour>
  </outline>
</glyph>
<glyph name="threequarters" format="1">
  <advance width="1573"></advance>
  <unicode hex="00BE"></unicode>
  <outline>
    <contour>
      <point x="1335" y="931" type="line"></point>
      <point x="1447" y="931" type="line"></point>
      <point x="1447" y="352" type="line"></point>
      <point x="1600" y="352" type="line"></point>
      <point x="1600" y="254" type="line"></point>
      <point x="1447" y="254" type="line"></point>
      <point x="1447" y="94" type="line"></point>
      <point x="1567" y="94" type="line"></point>
      <point x="1567" y="0" type="line"></point>
      <point x="1200" y="0" type="line"></point>
      <point x="1200" y="94" type="line"></point>
      <point x="1332" y="94" type="line"></point>
      <point x="1332" y="254" type="line"></point>
      <point x="961" y="254" type="line"></point>
      <point x="961" y="352" type="line"></point>
    </contour>
    <contour>
      <point x="-74" y="941" type="line"></point>
      <point x="-69" y="1082"></point>
      <point x="37" y="1171"></point>
      <point x="186" y="1171" type="curve" smooth="yes"></point>
      <point x="360" y="1170"></point>
      <point x="477" y="1103"></point>
      <point x="481" y="941" type="curve"></point>
      <point x="481" y="838"></point>
      <point x="431" y="772"></point>
      <point x="330" y="743" type="curve"></point>
      <point x="428" y="725"></point>
      <point x="515" y="656"></point>
      <point x="515" y="550" type="curve" smooth="yes"></point>
      <point x="515" y="368"></point>
      <point x="379" y="283"></point>
      <point x="189" y="283" type="curve" smooth="yes"></point>
      <point x="186" y="283" type="line" smooth="yes"></point>
      <point x="15" y="283"></point>
      <point x="-95" y="375"></point>
      <point x="-95" y="554" type="curve"></point>
      <point x="14" y="557" type="line"></point>
      <point x="23" y="461"></point>
      <point x="83" y="383"></point>
      <point x="181" y="383" type="curve" smooth="yes"></point>
      <point x="295" y="383"></point>
      <point x="395" y="424"></point>
      <point x="395" y="520" type="curve"></point>
      <point x="391" y="663"></point>
      <point x="316" y="693"></point>
      <point x="121" y="693" type="curve"></point>
      <point x="121" y="792" type="line"></point>
      <point x="289" y="792"></point>
      <point x="366" y="814"></point>
      <point x="366" y="926" type="curve" smooth="yes"></point>
      <point x="366" y="1022"></point>
      <point x="292" y="1068"></point>
      <point x="191" y="1068" type="curve" smooth="yes"></point>
      <point x="90" y="1068"></point>
      <point x="42" y="1013"></point>
      <point x="36" y="921" type="curve"></point>
    </contour>
    <contour>
      <point x="954" y="1170" type="line"></point>
      <point x="1043" y="1170" type="line"></point>
      <point x="629" y="0" type="line"></point>
      <point x="539" y="0" type="line"></point>
    </contour>
    <contour>
      <point x="1332" y="352" type="line"></point>
      <point x="1332" y="765" type="line"></point>
      <point x="1078" y="352" type="line"></point>
    </contour>
  </outline>
</glyph>
